<svg width="17" height="22" viewBox="0 0 16 22" fill="none" xmlns="http://www.w3.org/2000/svg">
<path fill-rule="evenodd" clip-rule="evenodd" d="M8.57366 4.81028C8.25457 4.87673 7.88289 5.03757 7.40845 5.31765C7.09904 5.50032 6.79543 5.70252 6.44518 5.93578C6.39239 5.97094 6.33853 6.00681 6.28343 6.04343C5.88698 6.30689 5.42448 6.61001 4.94279 6.86569C4.04428 7.34262 3.01685 6.9665 2.64797 6.0256C2.27909 5.0847 2.70844 3.93532 3.60695 3.45839C3.9063 3.29949 4.22811 3.09226 4.62639 2.82759C4.67498 2.7953 4.72496 2.76197 4.77618 2.72783C5.11933 2.49906 5.5179 2.23334 5.92395 1.99364C6.86157 1.44012 8.09818 0.862122 9.52438 0.966192C10.0589 1.0052 10.4559 1.25254 10.7029 1.45467C10.9587 1.66395 11.1595 1.91096 11.3122 2.13163C11.6175 2.57303 11.8601 3.09922 12.0389 3.58724C12.2202 4.08212 12.3673 4.62332 12.4465 5.13333C12.4861 5.3876 12.5147 5.67192 12.5117 5.96217C12.509 6.21897 12.4816 6.64652 12.3 7.09729C12.247 7.2289 12.1942 7.36151 12.141 7.49494C11.64 8.75299 11.11 10.0838 10.0988 11.3435C10.6589 11.4403 11.2225 11.5652 11.7567 11.7231C12.344 11.8967 12.9379 12.1225 13.4667 12.4212C13.9793 12.7107 14.5402 13.1296 14.9335 13.75C15.3642 14.4292 15.562 15.3116 15.3253 16.2927C15.1091 17.1882 14.5831 17.947 13.9864 18.5744C11.8804 20.7892 9.81551 21.8168 7.6026 21.9044C5.54215 21.9859 3.53486 21.2282 1.58927 20.4444C0.704147 20.0878 0.310835 18.994 0.710782 18.0012C1.11073 17.0084 2.15248 16.4927 3.03761 16.8492C5.0608 17.6643 6.4721 18.1376 7.75439 18.0869C8.88422 18.0422 10.0862 17.5742 11.6456 15.9343C11.6668 15.9121 11.6865 15.8908 11.7049 15.8705C11.6886 15.8608 11.6716 15.8509 11.6536 15.8408C11.3927 15.6934 11.0338 15.5474 10.5864 15.4151C9.69123 15.1505 8.61083 14.9897 7.64517 14.9194C7.16756 14.8846 6.7381 14.8733 6.39596 14.8795C6.22491 14.8826 6.0845 14.8899 5.97667 14.8993C5.87725 14.9079 5.82931 14.9163 5.8212 14.9177C5.81985 14.918 5.8196 14.918 5.8204 14.9178C5.74167 14.9355 5.60124 14.9625 5.42981 14.9634C5.29247 14.9641 4.91991 14.9527 4.54023 14.701C4.0464 14.3736 3.7686 13.7923 3.77598 13.1633C3.78165 12.6793 3.95348 12.3199 4.02024 12.1896C4.16319 11.9107 4.33778 11.7187 4.38758 11.664L4.38943 11.662C4.46771 11.5759 4.54502 11.5014 4.60477 11.4459C4.82844 11.2382 5.1436 10.9874 5.41788 10.7738C5.69438 10.5584 5.9544 10.3605 6.17856 10.1899C6.48408 9.95729 6.72301 9.77542 6.84633 9.66914C7.89854 8.7623 8.26308 7.87308 8.98132 6.0877C8.97992 6.0778 8.97838 6.06745 8.9767 6.05664C8.94253 5.8368 8.86662 5.5395 8.75594 5.23747C8.69466 5.07027 8.63182 4.92643 8.57366 4.81028ZM6.75826 14.2709C6.75833 14.2708 6.75893 14.2703 6.76009 14.2692C6.75881 14.2704 6.75818 14.271 6.75826 14.2709Z" fill="#45BE59"/>
</svg>
