<svg width="17" height="19" viewBox="0 0 9 19" fill="none" xmlns="http://www.w3.org/2000/svg">
<path fill-rule="evenodd" clip-rule="evenodd" d="M5.33094 4.80464C5.201 6.57601 5.14106 8.35136 5.14106 10.1282C5.14106 10.5119 5.1295 10.9533 5.11727 11.42C5.09581 12.2393 5.07232 13.1363 5.10583 13.9339C5.1625 15.2828 5.37594 16.7401 6.07517 18.1434C6.45646 18.9086 7.38374 19.2187 8.14631 18.8361C8.90888 18.4535 9.21797 17.5231 8.83669 16.7579C8.41015 15.9018 8.23802 14.9333 8.19056 13.8035C8.15998 13.0755 8.17906 12.4151 8.19963 11.703C8.21373 11.2151 8.22852 10.7029 8.22852 10.1282C8.22852 7.37034 8.37884 4.63313 8.71641 1.92322C8.73631 1.76351 8.84469 0.757902 7.91023 0.218588C7.50281 -0.0165554 7.10755 -0.0143809 6.88556 0.0118203C6.65918 0.0385399 6.47662 0.105157 6.36446 0.152397C5.97769 0.315288 5.5944 0.617764 5.37125 0.797948C5.14438 0.981131 4.90155 1.19167 4.69674 1.36923C4.65808 1.40276 4.62076 1.43511 4.58517 1.46588C4.46689 1.56813 4.36648 1.65402 4.28177 1.72361C4.24001 1.75793 4.20651 1.78461 4.18031 1.80472C4.15685 1.82274 4.14526 1.83086 4.14347 1.83211C4.14316 1.83232 4.14314 1.83234 4.1434 1.83216C3.89645 1.99736 3.59659 2.23257 3.3294 2.4422C3.31163 2.45615 3.29383 2.47012 3.276 2.4841C3.00417 2.69744 2.72669 2.91521 2.44555 3.12143C2.14359 3.34292 1.87212 3.52511 1.64306 3.65229C1.44108 3.76444 1.35101 3.78872 1.35147 3.79058C1.3515 3.7907 1.35188 3.79073 1.3526 3.79068C0.516062 3.89527 -0.0838017 4.65555 0.00957801 5.49887C0.10373 6.34915 0.86698 6.96186 1.71435 6.86738C2.26751 6.80571 2.77513 6.56449 3.13784 6.3631C3.531 6.14481 3.92158 5.87633 4.26756 5.62256C4.59107 5.38526 4.90599 5.13805 5.17101 4.93003C5.19136 4.91405 5.21141 4.89831 5.23115 4.88282C5.26575 4.85567 5.299 4.82962 5.33094 4.80464Z" fill="#45BE59"/>
</svg>
