<svg width="17" height="17" viewBox="0 0 17 17" fill="none" xmlns="http://www.w3.org/2000/svg">
<path fill-rule="evenodd" clip-rule="evenodd" d="M9.76193 4.25898C9.73662 4.23782 9.45008 4.02787 8.47259 4.1076C7.80287 4.16222 6.88813 4.4643 5.98208 4.98279C5.07594 5.50133 4.34686 6.14001 3.95188 6.72234C3.44738 7.46612 2.43545 7.6601 1.69167 7.1556C0.947883 6.65111 0.753904 5.63917 1.2584 4.89539C2.01464 3.78046 3.17901 2.837 4.36558 2.15799C5.55224 1.47892 6.92948 0.96803 8.20802 0.863749C9.59922 0.750277 10.8947 0.963954 11.8492 1.76181C12.8453 2.59444 13.1199 3.76273 13.0911 4.76789C13.0369 6.66154 11.923 8.73617 10.8425 10.069C10.1595 10.9116 9.41109 11.7294 8.61242 12.4997C10.6698 12.4993 12.7071 12.5675 14.758 12.6881C15.6552 12.7408 16.3397 13.5109 16.287 14.4081C16.2342 15.3053 15.4642 15.9898 14.567 15.9371C12.1172 15.7931 9.7027 15.7267 7.25774 15.765C6.89771 15.7706 6.53955 15.7573 6.22847 15.7458L6.20978 15.7451C5.87936 15.7328 5.59756 15.7228 5.32547 15.7268C4.78304 15.735 4.41794 15.8009 4.13005 15.9372C4.1054 15.9488 4.06369 15.9681 4.01353 15.9881C4.01327 15.9882 4.01276 15.9884 4.01203 15.9888C3.9938 15.9963 3.83308 16.0627 3.62636 16.0921C3.56023 16.1016 3.43989 16.1148 3.28949 16.1051C3.15725 16.0965 2.86359 16.0624 2.55006 15.8722C2.17306 15.6435 1.8784 15.2525 1.79163 14.7661C1.71899 14.359 1.81979 14.0387 1.87466 13.8959C1.97775 13.6274 2.12949 13.4526 2.16238 13.4148C2.16332 13.4137 2.16417 13.4127 2.16491 13.4118C2.2202 13.3479 2.26922 13.3013 2.29437 13.278C2.40928 13.1715 2.55195 13.0751 2.58617 13.0519C2.58855 13.0503 2.5904 13.0491 2.59169 13.0482C2.72515 12.957 2.92647 12.8263 3.12433 12.6986C3.2003 12.6496 3.27687 12.6003 3.35261 12.5515C3.4844 12.4666 3.61364 12.3834 3.73265 12.3062C3.82514 12.2462 3.90581 12.1934 3.97055 12.1503C4.00283 12.1288 4.02898 12.1112 4.04929 12.0973C4.06993 12.0831 4.07887 12.0767 4.07955 12.0762L4.07959 12.0762C5.63507 10.9393 7.09018 9.52943 8.31427 8.01946C9.17674 6.95557 9.81253 5.55772 9.83783 4.67467C9.84331 4.48324 9.81746 4.37154 9.79789 4.31803C9.78262 4.27627 9.77135 4.26685 9.76221 4.25921L9.76193 4.25898ZM4.38649 15.7645C4.38621 15.7646 4.38978 15.7619 4.39808 15.756C4.39093 15.7614 4.38677 15.7643 4.38649 15.7645Z" fill="#45BE59"/>
</svg>
