<svg width="9" height="9" viewBox="0 0 9 9" fill="none" xmlns="http://www.w3.org/2000/svg">
<path fill-rule="evenodd" clip-rule="evenodd" d="M7.99113 1.06648C7.99113 0.615552 7.59936 0.25 7.11609 0.25C6.67746 0.25 6.3142 0.551136 6.25083 0.943926L6.2422 0.95482C6.21511 0.988477 6.18596 1.02111 6.14141 1.071L6.14141 1.071L6.11811 1.09709C6.0699 1.15116 5.99431 1.23613 5.92803 1.3289C5.67297 1.68588 5.43309 2.05123 5.20336 2.4011L5.11276 2.53901C4.86267 2.91928 4.62119 3.28155 4.36344 3.62845C3.80097 3.10534 3.27816 2.51849 2.7287 1.90174L2.72869 1.90173L2.53014 1.67904C2.53153 1.6806 2.53232 1.68148 2.53239 1.68143C2.53248 1.68137 2.53138 1.67976 2.52887 1.67607C2.52165 1.66548 2.50276 1.63779 2.46685 1.58047L2.44424 1.54421C2.40042 1.47377 2.33909 1.37517 2.27483 1.28377C2.2 1.17732 2.08606 1.02829 1.93164 0.899695C1.77823 0.771932 1.50411 0.598055 1.12504 0.598055C0.641771 0.598055 0.25 0.963606 0.25 1.41454C0.25 1.76156 0.482024 2.05802 0.809218 2.17622L0.811457 2.1794C0.847197 2.23024 0.879967 2.28278 0.923399 2.35242L0.955964 2.40456C0.983158 2.44796 1.01579 2.49941 1.05026 2.54961C1.08359 2.59815 1.12938 2.66139 1.18537 2.72408C1.25603 2.80321 1.32727 2.88328 1.39917 2.9641L1.39917 2.9641C1.98354 3.62096 2.61139 4.32669 3.32692 4.96571C2.64207 5.81225 1.92528 6.61504 1.13098 7.35618C0.789257 7.67503 0.789257 8.192 1.13098 8.51086C1.47271 8.82971 2.02676 8.82971 2.36848 8.51086C3.20866 7.72691 3.95953 6.88887 4.66026 6.02781C4.91935 6.22466 5.19292 6.42597 5.47209 6.60718C5.91369 6.89382 6.32731 7.23156 6.78098 7.60201L6.81809 7.63231C6.83726 7.64797 6.876 7.67809 6.91195 7.70605L6.91199 7.70608L6.93923 7.72728C6.98997 7.76681 7.04863 7.81276 7.10279 7.8563C7.12888 7.87728 7.15102 7.89538 7.16903 7.91035C7.32853 8.11022 7.58372 8.23967 7.87132 8.23967C7.96728 8.23967 8.27355 8.22478 8.52008 7.97365C8.78798 7.70075 8.75994 7.3863 8.73439 7.2635C8.708 7.13672 8.65546 7.04635 8.63537 7.01312C8.60947 6.97028 8.58435 6.9375 8.56888 6.91822C8.51672 6.85324 8.45922 6.80091 8.43842 6.78199L8.43841 6.78198L8.43819 6.78178C8.37964 6.7285 8.30604 6.66816 8.24516 6.61922C8.18042 6.56717 8.11333 6.51465 8.061 6.47388L7.99419 6.42188L7.9735 6.40569L7.97194 6.40446C7.97004 6.40297 7.9697 6.40271 7.97041 6.40329L7.9078 6.35215C7.47448 5.99816 6.99505 5.6065 6.47151 5.26667C6.20305 5.09242 5.95471 4.90664 5.69188 4.70529C5.71565 4.67372 5.73938 4.64215 5.76307 4.61056C6.06693 4.20553 6.34283 3.79081 6.6044 3.39307L6.69594 3.25376L6.69595 3.25375C6.92763 2.90097 7.14905 2.56381 7.38419 2.2347C7.39232 2.22332 7.41144 2.19983 7.46342 2.14154L7.4815 2.12132C7.52414 2.0737 7.58533 2.00535 7.64161 1.93542C7.75406 1.7957 7.99113 1.48317 7.99113 1.06648ZM7.2214 7.95564L7.21647 7.951C7.22 7.95421 7.22152 7.9557 7.2214 7.95564Z" fill="white"/>
</svg>
