<?xml version="1.0" standalone="no"?>
<!DOCTYPE svg PUBLIC "-//W3C//DTD SVG 20010904//EN"
 "http://www.w3.org/TR/2001/REC-SVG-20010904/DTD/svg10.dtd">
<svg version="1.0" xmlns="http://www.w3.org/2000/svg"
 width="512.000000pt" height="512.000000pt" viewBox="0 0 512.000000 512.000000"
 preserveAspectRatio="xMidYMid meet">
<metadata>
Created by potrace 1.14, written by Peter Selinger 2001-2017
</metadata>
<g transform="translate(0.000000,512.000000) scale(0.100000,-0.100000)"
fill="#000000" stroke="none">
<path d="M2369 5116 c-2 -2 -34 -6 -70 -10 -961 -90 -1816 -758 -2147 -1676
-29 -81 -86 -277 -96 -330 -30 -160 -34 -185 -44 -280 -9 -87 -8 -459 1 -535
20 -155 33 -225 68 -360 197 -759 709 -1370 1425 -1698 163 -75 399 -150 564
-180 180 -34 279 -42 495 -42 155 0 229 4 355 20 71 8 257 48 345 74 470 135
927 427 1225 780 25 30 50 59 55 65 44 47 195 265 234 336 149 276 248 538
286 759 3 19 8 37 10 40 6 10 20 111 32 231 10 96 10 423 0 515 -12 103 -24
184 -32 215 -1 3 -5 23 -9 45 -13 70 -57 227 -88 315 -163 464 -442 858 -823
1161 -77 62 -260 189 -271 189 -4 0 -15 6 -23 14 -20 18 -257 137 -331 166
-154 62 -408 136 -498 145 -18 2 -36 6 -40 8 -4 3 -36 8 -72 12 -36 4 -74 9
-85 12 -23 5 -461 14 -466 9z"/>
</g>
</svg>
