<svg width="18" height="18" viewBox="0 0 18 18" fill="none" xmlns="http://www.w3.org/2000/svg">
<path fill-rule="evenodd" clip-rule="evenodd" d="M8.80698 5.40039H6.38735C6.31311 5.40039 6.25293 5.45758 6.25293 5.52813V8.12541V12.8516C6.25293 12.9221 6.31311 12.9793 6.38735 12.9793H8.67256C8.7468 12.9793 8.80698 12.9221 8.80698 12.8516V10.9767C8.80698 10.9007 8.87643 10.8417 8.9563 10.846C9.01069 10.8489 9.06548 10.8504 9.12064 10.8504H10.0168C11.6006 10.8504 12.8845 9.63039 12.8845 8.12541C12.8845 6.62042 11.6006 5.40039 10.0168 5.40039H8.80698Z" fill="#605B5B"/>
<path fill-rule="evenodd" clip-rule="evenodd" d="M15.1578 0.947368V2.84211H17.0526V0.947368H15.1578ZM14.4947 0C14.3377 0 14.2104 0.127245 14.2104 0.28421V3.50526C14.2104 3.66223 14.3377 3.78947 14.4947 3.78947H17.7157C17.8727 3.78947 17.9999 3.66223 17.9999 3.50526V0.284211C17.9999 0.127245 17.8727 0 17.7157 0H14.4947Z" fill="#605B5B"/>
<path fill-rule="evenodd" clip-rule="evenodd" d="M15.1578 15.1583V17.053H17.0526V15.1583H15.1578ZM14.4947 14.2109C14.3377 14.2109 14.2104 14.3382 14.2104 14.4951V17.7162C14.2104 17.8732 14.3377 18.0004 14.4947 18.0004H17.7157C17.8727 18.0004 17.9999 17.8732 17.9999 17.7162V14.4951C17.9999 14.3382 17.8727 14.2109 17.7157 14.2109H14.4947Z" fill="#605B5B"/>
<path fill-rule="evenodd" clip-rule="evenodd" d="M0.947368 15.1583V17.053H2.84211V15.1583H0.947368ZM0.284211 14.2109C0.127245 14.2109 0 14.3382 0 14.4951V17.7162C0 17.8732 0.127245 18.0004 0.28421 18.0004H3.50526C3.66223 18.0004 3.78947 17.8732 3.78947 17.7162V14.4951C3.78947 14.3382 3.66223 14.2109 3.50526 14.2109H0.284211Z" fill="#605B5B"/>
<path fill-rule="evenodd" clip-rule="evenodd" d="M0.947368 0.947368V2.84211H2.84211V0.947368H0.947368ZM0.284211 0C0.127245 0 0 0.127245 0 0.28421V3.50526C0 3.66223 0.127245 3.78947 0.28421 3.78947H3.50526C3.66223 3.78947 3.78947 3.66223 3.78947 3.50526V0.284211C3.78947 0.127245 3.66223 0 3.50526 0H0.284211Z" fill="#605B5B"/>
<path fill-rule="evenodd" clip-rule="evenodd" d="M1.51611 1.51562H2.78322C2.99251 1.51562 3.16217 1.68529 3.16217 1.89457C3.16217 2.10386 2.99251 2.27352 2.78322 2.27352H2.27401V2.78273C2.27401 2.99202 2.10435 3.16168 1.89506 3.16168C1.68577 3.16168 1.51611 2.99202 1.51611 2.78273V1.51562ZM4.18059 1.89457C4.18059 1.68529 4.35025 1.51562 4.55953 1.51562H6.33585C6.54514 1.51562 6.7148 1.68529 6.7148 1.89457C6.7148 2.10386 6.54514 2.27352 6.33585 2.27352H4.55953C4.35025 2.27352 4.18059 2.10386 4.18059 1.89457ZM7.73322 1.89457C7.73322 1.68529 7.90288 1.51562 8.11217 1.51562H9.88848C10.0978 1.51562 10.2674 1.68529 10.2674 1.89457C10.2674 2.10386 10.0978 2.27352 9.88848 2.27352H8.11217C7.90288 2.27352 7.73322 2.10386 7.73322 1.89457ZM11.2858 1.89457C11.2858 1.68529 11.4555 1.51562 11.6648 1.51562H13.4411C13.6504 1.51562 13.8201 1.68529 13.8201 1.89457C13.8201 2.10386 13.6504 2.27352 13.4411 2.27352H11.6648C11.4555 2.27352 11.2858 2.10386 11.2858 1.89457ZM14.8385 1.89457C14.8385 1.68529 15.0081 1.51562 15.2174 1.51562H16.4845V2.78273C16.4845 2.99202 16.3149 3.16168 16.1056 3.16168C15.8963 3.16168 15.7266 2.99202 15.7266 2.78273V2.27352H15.2174C15.0081 2.27352 14.8385 2.10386 14.8385 1.89457ZM1.89506 4.1801C2.10435 4.1801 2.27401 4.34976 2.27401 4.55905V6.33536C2.27401 6.54465 2.10435 6.71431 1.89506 6.71431C1.68577 6.71431 1.51611 6.54465 1.51611 6.33536V4.55905C1.51611 4.34976 1.68577 4.1801 1.89506 4.1801ZM16.1056 4.1801C16.3149 4.1801 16.4845 4.34976 16.4845 4.55905V6.33536C16.4845 6.54465 16.3149 6.71431 16.1056 6.71431C15.8963 6.71431 15.7266 6.54465 15.7266 6.33536V4.55905C15.7266 4.34976 15.8963 4.1801 16.1056 4.1801ZM1.89506 7.73273C2.10435 7.73273 2.27401 7.90239 2.27401 8.11168V9.88799C2.27401 10.0973 2.10435 10.2669 1.89506 10.2669C1.68577 10.2669 1.51611 10.0973 1.51611 9.88799V8.11168C1.51611 7.90239 1.68577 7.73273 1.89506 7.73273ZM16.1056 7.73273C16.3149 7.73273 16.4845 7.90239 16.4845 8.11168V9.88799C16.4845 10.0973 16.3149 10.2669 16.1056 10.2669C15.8963 10.2669 15.7266 10.0973 15.7266 9.88799V8.11168C15.7266 7.90239 15.8963 7.73273 16.1056 7.73273ZM1.89506 11.2854C2.10435 11.2854 2.27401 11.455 2.27401 11.6643V13.4406C2.27401 13.6499 2.10435 13.8196 1.89506 13.8196C1.68577 13.8196 1.51611 13.6499 1.51611 13.4406V11.6643C1.51611 11.455 1.68577 11.2854 1.89506 11.2854ZM16.1056 11.2854C16.3149 11.2854 16.4845 11.455 16.4845 11.6643V13.4406C16.4845 13.6499 16.3149 13.8196 16.1056 13.8196C15.8963 13.8196 15.7266 13.6499 15.7266 13.4406V11.6643C15.7266 11.455 15.8963 11.2854 16.1056 11.2854ZM1.89506 14.838C2.10435 14.838 2.27401 15.0077 2.27401 15.2169V15.7262H2.78322C2.99251 15.7262 3.16217 15.8958 3.16217 16.1051C3.16217 16.3144 2.99251 16.484 2.78322 16.484H1.51611V15.2169C1.51611 15.0077 1.68577 14.838 1.89506 14.838ZM16.1056 14.838C16.3149 14.838 16.4845 15.0077 16.4845 15.2169V16.484H15.2174C15.0081 16.484 14.8385 16.3144 14.8385 16.1051C14.8385 15.8958 15.0081 15.7262 15.2174 15.7262H15.7266V15.2169C15.7266 15.0077 15.8963 14.838 16.1056 14.838ZM4.18059 16.1051C4.18059 15.8958 4.35025 15.7262 4.55953 15.7262H6.33585C6.54514 15.7262 6.7148 15.8958 6.7148 16.1051C6.7148 16.3144 6.54514 16.484 6.33585 16.484H4.55953C4.35025 16.484 4.18059 16.3144 4.18059 16.1051ZM7.73322 16.1051C7.73322 15.8958 7.90288 15.7262 8.11217 15.7262H9.88848C10.0978 15.7262 10.2674 15.8958 10.2674 16.1051C10.2674 16.3144 10.0978 16.484 9.88848 16.484H8.11217C7.90288 16.484 7.73322 16.3144 7.73322 16.1051ZM11.2858 16.1051C11.2858 15.8958 11.4555 15.7262 11.6648 15.7262H13.4411C13.6504 15.7262 13.8201 15.8958 13.8201 16.1051C13.8201 16.3144 13.6504 16.484 13.4411 16.484H11.6648C11.4555 16.484 11.2858 16.3144 11.2858 16.1051Z" fill="#605B5B"/>
</svg>
