<svg width="18" height="17" viewBox="0 0 18 17" fill="none" xmlns="http://www.w3.org/2000/svg">
<path fill-rule="evenodd" clip-rule="evenodd" d="M15.7105 0.894737H2.28947C1.79532 0.894737 1.39474 1.29532 1.39474 1.78947V15.2105C1.39474 15.7047 1.79532 16.1053 2.28947 16.1053H15.7105C16.2047 16.1053 16.6053 15.7047 16.6053 15.2105V1.78947C16.6053 1.29532 16.2047 0.894737 15.7105 0.894737ZM2.28947 0C1.30117 0 0.5 0.801175 0.5 1.78947V15.2105C0.5 16.1988 1.30117 17 2.28947 17H15.7105C16.6988 17 17.5 16.1988 17.5 15.2105V1.78947C17.5 0.801175 16.6988 0 15.7105 0H2.28947Z" fill="#605B5B"/>
<path fill-rule="evenodd" clip-rule="evenodd" d="M11.5 2.22222C11.5 2.09949 11.5995 2 11.7222 2H14.8333C15.2015 2 15.5 2.29848 15.5 2.66667V5.77778C15.5 5.90051 15.4005 6 15.2778 6C15.155 6 15.0556 5.90051 15.0556 5.77778V2.66667C15.0556 2.54394 14.9561 2.44444 14.8333 2.44444H11.7222C11.5995 2.44444 11.5 2.34495 11.5 2.22222Z" fill="#605B5B"/>
<path fill-rule="evenodd" clip-rule="evenodd" d="M6.5 2.22222C6.5 2.09949 6.40051 2 6.27778 2H3.16667C2.79848 2 2.5 2.29848 2.5 2.66667V5.77778C2.5 5.90051 2.59949 6 2.72222 6C2.84495 6 2.94444 5.90051 2.94444 5.77778V2.66667C2.94444 2.54394 3.04394 2.44444 3.16667 2.44444H6.27778C6.40051 2.44444 6.5 2.34495 6.5 2.22222Z" fill="#605B5B"/>
<path fill-rule="evenodd" clip-rule="evenodd" d="M11.5 14.7778C11.5 14.9005 11.5995 15 11.7222 15H14.8333C15.2015 15 15.5 14.7015 15.5 14.3333V11.2222C15.5 11.0995 15.4005 11 15.2778 11C15.155 11 15.0556 11.0995 15.0556 11.2222V14.3333C15.0556 14.4561 14.9561 14.5556 14.8333 14.5556H11.7222C11.5995 14.5556 11.5 14.655 11.5 14.7778Z" fill="#605B5B"/>
<path fill-rule="evenodd" clip-rule="evenodd" d="M6.5 14.7778C6.5 14.9005 6.40051 15 6.27778 15H3.16667C2.79848 15 2.5 14.7015 2.5 14.3333V11.2222C2.5 11.0995 2.59949 11 2.72222 11C2.84495 11 2.94444 11.0995 2.94444 11.2222V14.3333C2.94444 14.4561 3.04394 14.5556 3.16667 14.5556H6.27778C6.40051 14.5556 6.5 14.655 6.5 14.7778Z" fill="#605B5B"/>
<path fill-rule="evenodd" clip-rule="evenodd" d="M6.5 8.5C6.5 8.22386 6.70351 8 6.95455 8H11.0455C11.2965 8 11.5 8.22386 11.5 8.5C11.5 8.77614 11.2965 9 11.0455 9H6.95455C6.70351 9 6.5 8.77614 6.5 8.5Z" fill="#605B5B"/>
<path fill-rule="evenodd" clip-rule="evenodd" d="M9 6C9.27614 6 9.5 6.20351 9.5 6.45455L9.5 10.5455C9.5 10.7965 9.27614 11 9 11C8.72386 11 8.5 10.7965 8.5 10.5455L8.5 6.45455C8.5 6.20351 8.72386 6 9 6Z" fill="#605B5B"/>
</svg>
