<svg width="18" height="20" viewBox="0 0 18 20" fill="none" xmlns="http://www.w3.org/2000/svg">
<path fill-rule="evenodd" clip-rule="evenodd" d="M8.99974 1.00003L8.99978 1C8.62957 1 8.30635 1.20118 8.13347 1.50017L8.13373 1.50002C8.04865 1.6471 7.99995 1.81788 7.99995 2.00003C7.99995 2.23032 8.07779 2.44244 8.20861 2.61149L8.20851 2.61154C8.35048 2.79497 8.55482 2.92769 8.78974 2.9779C8.81727 2.98379 8.84522 2.98854 8.87354 2.99211C8.91494 2.99733 8.95713 3.00003 8.99994 3.00003C9.55223 3.00003 9.99994 2.55231 9.99994 2.00003C9.99994 1.50469 9.63981 1.09348 9.16709 1.01393C9.11272 1.00478 9.05686 1.00001 8.99989 1L8.99994 1.00003C8.99988 1.00003 8.99981 1.00003 8.99974 1.00003ZM14.8389 4.37118L10.9941 2.15138C10.9979 2.10141 10.9998 2.05093 10.9998 2C10.9998 0.89543 10.1044 0 8.99978 0C7.89521 0 6.99978 0.89543 6.99978 2C6.99978 2.05095 7.00169 2.10145 7.00543 2.15144L3.16082 4.37113C2.83351 4.13745 2.43281 3.99997 2 3.99997C0.895431 3.99997 0 4.8954 0 5.99997C0 6.82227 0.496253 7.52866 1.20561 7.836L1.20561 12.164C0.496253 12.4713 0 13.1777 0 14C0 15.1046 0.89543 16 2 16C2.43282 16 2.83353 15.8625 3.16083 15.6288L7.00544 17.8485C7.00169 17.8985 6.99978 17.9491 6.99978 18C6.99978 19.1046 7.89521 20 8.99978 20C10.1044 20 10.9998 19.1046 10.9998 18C10.9998 17.9491 10.9979 17.8986 10.9941 17.8486L14.8389 15.6288C15.1663 15.8625 15.567 16 15.9998 16C17.1044 16 17.9998 15.1046 17.9998 14C17.9998 13.1776 17.5035 12.4712 16.7941 12.1639V7.83606C17.5035 7.52877 17.9998 6.82233 17.9998 5.99997C17.9998 4.8954 17.1044 3.99997 15.9998 3.99997C15.567 3.99997 15.1663 4.13748 14.8389 4.37118ZM2 4.99997C2.02276 4.99997 2.04534 5.00073 2.06772 5.00223L2.06767 5.00226C2.46882 5.02911 2.80519 5.29252 2.93849 5.65419L2.93858 5.65414C2.96947 5.73793 2.98945 5.82699 2.99682 5.91961L2.9967 5.91954C2.99881 5.94608 2.99989 5.97291 2.99989 6C2.99989 6.34267 2.82753 6.64509 2.56478 6.82528L2.56481 6.82531C2.47148 6.8893 2.36674 6.93788 2.25427 6.96736C2.24194 6.97059 2.22951 6.9736 2.21699 6.97637C2.14709 6.99184 2.07444 7 1.99989 7C1.44761 7 0.999891 6.55228 0.999891 6C0.999891 5.53291 1.32013 5.14062 1.75303 5.0307C1.83202 5.01064 1.91476 4.99997 2 4.99997ZM2.20561 7.98953C2.70487 7.93855 3.14978 7.70392 3.47169 7.35429L7.07468 9.45592C7.02589 9.62891 6.99978 9.81141 6.99978 10C6.99978 10.1824 7.02419 10.359 7.06992 10.5269L3.43322 12.605C3.11477 12.2779 2.68528 12.0594 2.20561 12.0104L2.20561 7.98953ZM3.94396 6.47208L7.579 8.5924C7.94143 8.2266 8.44415 8.00001 8.99978 8.00001C9.56183 8.00001 10.0697 8.23186 10.4331 8.60513L14.07 6.5269C14.0242 6.35902 13.9998 6.18234 13.9998 5.99997C13.9998 5.69623 14.0675 5.4083 14.1887 5.15046L10.6612 3.11384C10.3021 3.6483 9.69203 4 8.99978 4C8.30755 4 7.69746 3.64832 7.33843 3.11388L3.8111 5.15039C3.93228 5.40825 4 5.6962 4 5.99997C4 6.1626 3.98059 6.3207 3.94396 6.47208ZM7.99982 9.99556L7.99979 9.99557V9.99554L7.99982 9.99556ZM8.50349 9.13166L8.50353 9.13169C8.20265 9.30408 7.99995 9.62835 7.99995 9.99997C7.99995 10.3684 8.19923 10.6904 8.4959 10.8638L8.49578 10.8639C8.64377 10.9504 8.81598 11 8.99978 11C9.08422 11 9.1662 10.9895 9.24452 10.9698C9.67858 10.8607 9.99994 10.4679 9.99994 9.99997C9.99994 9.44769 9.55223 8.99997 8.99994 8.99997C8.91444 8.99997 8.83144 9.0107 8.75221 9.0309C8.66404 9.05335 8.58055 9.08753 8.50349 9.13166ZM8.99978 12C9.55543 12 10.0582 11.7734 10.4206 11.4076L14.0558 13.5281C14.0192 13.6794 13.9998 13.8374 13.9998 14C13.9998 14.3037 14.0675 14.5916 14.1887 14.8495L10.6611 16.8861C10.3021 16.3517 9.692 16 8.99978 16C8.30758 16 7.69751 16.3517 7.33847 16.8861L3.81111 14.8496C3.93228 14.5917 4 14.3038 4 14C4 13.8176 3.97558 13.6409 3.92984 13.473L7.56651 11.3949C7.92984 11.7682 8.43774 12 8.99978 12ZM15.0612 14.3457C15.0304 14.262 15.0104 14.1731 15.003 14.0806L15.0032 14.0807C15.0011 14.0541 15 14.0272 15 14C15 13.6574 15.1723 13.355 15.435 13.1748L15.4349 13.1748C15.5415 13.1016 15.6631 13.0486 15.7941 13.0212V13.0212C15.8605 13.0073 15.9294 13 16 13C16.5523 13 17 13.4477 17 14C17 14.5523 16.5523 15 16 15C15.5692 15 15.202 14.7276 15.0613 14.3457L15.0612 14.3457ZM10.9249 10.5441L14.528 12.6458C14.8499 12.2961 15.2948 12.0615 15.7941 12.0104L15.7941 7.98952C15.3144 7.9405 14.885 7.722 14.5666 7.39488L10.9297 9.47312C10.9754 9.64099 10.9998 9.81765 10.9998 10C10.9998 10.1886 10.9737 10.3711 10.9249 10.5441ZM2.50394 13.1361C2.41271 13.0827 2.31228 13.0434 2.20561 13.0211V13.0212C2.13922 13.0073 2.07041 13 1.99989 13C1.44761 13 0.999891 13.4477 0.999891 14C0.999891 14.5523 1.44761 15 1.99989 15C2.43064 15 2.79779 14.7277 2.93851 14.3458L2.93859 14.3458C2.97783 14.2393 2.99948 14.1243 2.99999 14.0044L2.99988 14.0044L2.99989 14C2.99989 13.6315 2.80057 13.3096 2.50386 13.1361L2.50394 13.1361ZM15.4958 6.86387L15.4959 6.86383C15.1993 6.69035 15 6.36845 15 6L15 5.99545L14.9998 5.99554C15.0004 5.87561 15.022 5.76065 15.0612 5.65421L15.0614 5.6543C15.1946 5.29263 15.5309 5.0292 15.932 5.00227L15.932 5.00224C15.9544 5.00074 15.977 4.99997 15.9998 4.99997C16.028 4.99997 16.0559 5.00114 16.0834 5.00342C16.1234 5.00673 16.1628 5.0124 16.2014 5.02029C16.6571 5.11347 17 5.51669 17 6C17 6.55228 16.5523 7 16 7C15.9294 7 15.8605 6.99269 15.7941 6.97878C15.6874 6.95647 15.587 6.91718 15.4958 6.86387ZM8.66963 17.0558C8.48538 17.1202 8.32573 17.2371 8.20856 17.3884L8.20865 17.3885C8.07781 17.5575 7.99995 17.7697 7.99995 18C7.99995 18.1821 8.04862 18.3528 8.13367 18.4999L8.13339 18.4997C8.30626 18.7988 8.62952 19 8.99978 19C9.08634 19 9.17034 18.989 9.25044 18.9684C9.6815 18.8572 9.99994 18.4658 9.99994 18C9.99994 17.4477 9.55223 17 8.99994 17C8.9194 17 8.84109 17.0095 8.76606 17.0275C8.73326 17.0353 8.70109 17.0448 8.66963 17.0558Z" fill="#605B5B"/>
</svg>
