<svg width="73" height="66" viewBox="0 0 73 66" fill="none" xmlns="http://www.w3.org/2000/svg">
<path d="M0 8.14815C0 3.64805 3.67227 0 8.20225 0H64.7978C69.3277 0 73 3.64805 73 8.14815V57.8519C73 62.3519 69.3277 66 64.7978 66H8.20225C3.67227 66 0 62.3519 0 57.8519V8.14815Z" fill="black"/>
<path d="M13 35.4C13 34.0745 14.1365 33 15.5385 33H21.4615C22.8635 33 24 34.0745 24 35.4V54.6C24 55.9255 22.8635 57 21.4615 57H15.5385C14.1365 57 13 55.9255 13 54.6V35.4Z" fill="#6BF65F"/>
<path d="M31 26.4146C31 25.0811 32.1365 24 33.5385 24H39.4615C40.8635 24 42 25.0811 42 26.4146V54.5854C42 55.9189 40.8635 57 39.4615 57H33.5385C32.1365 57 31 55.9189 31 54.5854V26.4146Z" fill="#6BF65F"/>
<path d="M49 17.4231C49 16.0848 50.1365 15 51.5385 15H57.4615C58.8635 15 60 16.0848 60 17.4231V54.5769C60 55.9152 58.8635 57 57.4615 57H51.5385C50.1365 57 49 55.9152 49 54.5769V17.4231Z" fill="#6BF65F"/>
</svg>
