<svg width="57" height="69" viewBox="0 0 57 69" fill="none" xmlns="http://www.w3.org/2000/svg">
<path fill-rule="evenodd" clip-rule="evenodd" d="M21.9527 0H1.15541C0.517293 0 0 0.517474 0 1.15581V24.6573V67.4223C0 68.0607 0.517292 68.5781 1.1554 68.5781H20.7973C21.4354 68.5781 21.9527 68.0607 21.9527 67.4223V50.4572C21.9527 49.7694 22.5496 49.236 23.2361 49.2748C23.7036 49.3012 24.1746 49.3146 24.6486 49.3146H32.3514C45.9644 49.3146 57 38.2752 57 24.6573C57 11.0395 45.9644 0 32.3514 0H21.9527Z" fill="black"/>
<path d="M37.5613 21.3041L32.0358 15.8884L33.856 14.0832C34.3544 13.5889 34.9667 13.3418 35.693 13.3418C36.4194 13.3418 37.0313 13.5889 37.5288 14.0832L39.3489 15.8884C39.8473 16.3827 40.1073 16.9793 40.129 17.6782C40.1506 18.3771 39.9123 18.9732 39.4139 19.4667L37.5613 21.3041ZM35.6761 23.206L21.8951 36.8742H16.3696V31.394L30.1507 17.7259L35.6761 23.206Z" fill="#6BF65F"/>
</svg>
