<svg width="99" height="103" viewBox="0 0 99 103" fill="none" xmlns="http://www.w3.org/2000/svg">
<path fill-rule="evenodd" clip-rule="evenodd" d="M44.5768 35.2812H37.9664C37.7635 35.2812 37.5991 35.4395 37.5991 35.6348V42.824V55.9059C37.5991 56.1012 37.7635 56.2595 37.9664 56.2595H44.2096C44.4124 56.2595 44.5768 56.1012 44.5768 55.9059V50.7162C44.5768 50.5058 44.7666 50.3427 44.9848 50.3545C45.1333 50.3626 45.283 50.3667 45.4337 50.3667H47.8821C52.209 50.3667 55.7167 46.9897 55.7167 42.824C55.7167 38.6582 52.209 35.2812 47.8821 35.2812H44.5768Z" fill="#6BF65F"/>
<path fill-rule="evenodd" clip-rule="evenodd" d="M65.5914 30.8495C73.1295 42.0667 70.147 57.271 58.9298 64.8092C47.7125 72.3474 32.5082 69.3649 24.97 58.1476C17.4319 46.9303 20.4144 31.726 31.6316 24.1879C42.8489 16.6497 58.0532 19.6322 65.5914 30.8495ZM66.1933 68.8099C78.3587 58.3716 81.0557 40.2457 71.8947 26.6135C62.0171 11.915 42.0942 8.00694 27.3957 17.8845C12.6972 27.7622 8.78912 47.685 18.6667 62.3835C27.8277 76.0156 45.6293 80.3663 59.8899 73.0458L67.0739 83.736C68.2436 85.4766 70.6029 85.9394 72.3435 84.7697C74.0841 83.6 74.5469 81.2407 73.3772 79.5001L66.1933 68.8099Z" fill="black"/>
</svg>
