<svg width="33" height="33" viewBox="0 0 33 33" fill="none" xmlns="http://www.w3.org/2000/svg">
<path d="M32.1828 16.0914C32.1828 24.9785 24.9785 32.1828 16.0914 32.1828C7.20437 32.1828 0 24.9785 0 16.0914C0 7.20437 7.20437 0 16.0914 0C24.9785 0 32.1828 7.20437 32.1828 16.0914Z" fill="white"/>
<path fill-rule="evenodd" clip-rule="evenodd" d="M16.0914 32.1828C24.9785 32.1828 32.1828 24.9785 32.1828 16.0914C32.1828 7.20437 24.9785 0 16.0914 0C7.20437 0 0 7.20437 0 16.0914C0 24.9785 7.20437 32.1828 16.0914 32.1828ZM19.2379 7.82055C19.1403 7.42727 18.7898 7.15137 18.3876 7.15137H13.7964C13.3943 7.15137 13.0437 7.42727 12.9462 7.82055L12.5331 9.48592C12.4356 9.8792 12.085 10.1551 11.6829 10.1551H8.02878C7.54474 10.1551 7.15234 10.5506 7.15234 11.0385V21.2866C7.15234 21.7745 7.54474 22.17 8.02878 22.17H24.1553C24.6393 22.17 25.0317 21.7745 25.0317 21.2866V11.0385C25.0317 10.5506 24.6393 10.1551 24.1553 10.1551H20.5012C20.099 10.1551 19.7485 9.8792 19.6509 9.48592L19.2379 7.82055ZM20.5619 16.1626C20.5619 18.6509 18.5606 20.6682 16.092 20.6682C13.6234 20.6682 11.6222 18.6509 11.6222 16.1626C11.6222 13.6742 13.6234 11.657 16.092 11.657C18.5606 11.657 20.5619 13.6742 20.5619 16.1626ZM16.092 19.1663C17.7378 19.1663 19.0719 17.8215 19.0719 16.1626C19.0719 14.5036 17.7378 13.1588 16.092 13.1588C14.4463 13.1588 13.1121 14.5036 13.1121 16.1626C13.1121 17.8215 14.4463 19.1663 16.092 19.1663ZM22.0518 12.4079C22.0518 12.8226 21.7183 13.1588 21.3068 13.1588C20.8954 13.1588 20.5619 12.8226 20.5619 12.4079C20.5619 11.9932 20.8954 11.657 21.3068 11.657C21.7183 11.657 22.0518 11.9932 22.0518 12.4079Z" fill="black"/>
</svg>
