<svg width="32" height="32" viewBox="0 0 32 32" fill="none" xmlns="http://www.w3.org/2000/svg">
<path fill-rule="evenodd" clip-rule="evenodd" d="M18.4415 28.0963C25.1064 27.2062 29.7878 21.0817 28.8978 14.4168C28.0077 7.75184 21.8831 3.0704 15.2182 3.96049C8.55327 4.85057 3.87183 10.9751 4.76192 17.64C4.86887 18.4409 5.05114 19.2122 5.30036 19.9481C5.5326 20.6339 5.50036 21.4244 5.11139 22.1062L4.02552 24.0095C3.79991 24.4049 4.1691 24.8743 4.60659 24.7483L6.03609 24.3365C6.96279 24.0695 7.90902 24.3625 8.5593 24.9637C11.1315 27.3417 14.701 28.5958 18.4415 28.0963ZM29.9034 14.2825C30.8677 21.5028 25.7961 28.1377 18.5758 29.102C14.5232 29.6432 10.6551 28.283 7.87056 25.7087C7.4514 25.3212 6.86549 25.1534 6.31697 25.3114L4.88747 25.7232C3.57501 26.1014 2.46743 24.693 3.14427 23.5067L4.23014 21.6034C4.4606 21.1995 4.48856 20.714 4.33938 20.2736C4.06924 19.4759 3.87194 18.6406 3.75626 17.7744C2.792 10.554 7.86355 3.91909 15.0839 2.95483C22.3042 1.99057 28.9392 7.06212 29.9034 14.2825Z" fill="#6BF65F"/>
<path fill-rule="evenodd" clip-rule="evenodd" d="M18.4023 27.7925C24.8995 26.9248 29.4631 20.9544 28.5955 14.4572C27.7278 7.95995 21.7573 3.39633 15.2601 4.26402C8.76294 5.1317 4.19932 11.1021 5.06701 17.5993C5.17132 18.3805 5.34906 19.1324 5.59195 19.8497C5.84919 20.6092 5.81586 21.492 5.37891 22.2579L4.29304 24.1611L4.02692 24.0093L5.11279 22.106C5.50175 21.4243 5.53399 20.6337 5.30175 19.9479C5.05254 19.2121 4.87027 18.4408 4.76331 17.6399C3.87323 10.975 8.55466 4.85041 15.2196 3.96032C21.8845 3.07024 28.0091 7.75167 28.8991 14.4166C29.7892 21.0815 25.1078 27.2061 18.4429 28.0962C14.7024 28.5957 11.1329 27.3415 8.5607 24.9635C7.91041 24.3623 6.96419 24.0693 6.03749 24.3363L4.60798 24.7481C4.1705 24.8742 3.8013 24.4047 4.02692 24.0093L4.29304 24.1611C4.20369 24.3177 4.3499 24.5036 4.52316 24.4537L5.95267 24.0419C6.99402 23.7419 8.04898 24.0732 8.76869 24.7385C11.2768 27.0572 14.7561 28.2794 18.4023 27.7925ZM30.2085 14.2417C31.1952 21.6298 26.0058 28.4189 18.6177 29.4055C14.471 29.9593 10.5127 28.5671 7.66396 25.9335C7.31461 25.6105 6.8375 25.4805 6.40319 25.6056L4.97368 26.0175C3.397 26.4717 2.06644 24.7799 2.87954 23.3547L3.96541 21.4514C4.14801 21.1314 4.17467 20.7381 4.05058 20.3717C3.77412 19.5553 3.57228 18.7007 3.45396 17.8147C2.4673 10.4267 7.65666 3.63763 15.0447 2.65097C22.4328 1.66431 29.2218 6.85367 30.2085 14.2417ZM18.5772 29.1018C25.7975 28.1376 30.8691 21.5026 29.9048 14.2823C28.9405 7.06196 22.3056 1.9904 15.0853 2.95466C7.86495 3.91892 2.79339 10.5538 3.75765 17.7742C3.87334 18.6404 4.07064 19.4757 4.34078 20.2734C4.48995 20.7139 4.462 21.1993 4.23154 21.6032L3.14567 23.5065C2.46883 24.6929 3.57641 26.1012 4.88886 25.7231L6.31837 25.3112C6.86689 25.1532 7.4528 25.321 7.87195 25.7085C10.6565 28.2828 14.5246 29.643 18.5772 29.1018Z" fill="#6BF65F"/>
</svg>
