<svg width="26" height="24" viewBox="0 0 26 24" fill="none" xmlns="http://www.w3.org/2000/svg">
<path d="M10.8333 21H5.25C4.14543 21 3.25 20.1046 3.25 19V12.3437C3.25 11.8042 3.46791 11.2877 3.85427 10.9112L11.6043 3.35994C12.3809 2.60322 13.6191 2.60322 14.3957 3.35994L22.1457 10.9112C22.5321 11.2877 22.75 11.8042 22.75 12.3437V19C22.75 20.1046 21.8546 21 20.75 21H15.1667M10.8333 21V15.5C10.8333 15.2239 11.0572 15 11.3333 15H14.6667C14.9428 15 15.1667 15.2239 15.1667 15.5V21M10.8333 21H15.1667" stroke="#6C6C6C" stroke-width="1.5"/>
</svg>
