<svg width="28" height="28" viewBox="0 0 28 28" fill="none" xmlns="http://www.w3.org/2000/svg">
<circle cx="14" cy="14" r="14" fill="#45BE59"/>
<path fill-rule="evenodd" clip-rule="evenodd" d="M13.2804 5.41992C14.1205 5.41992 14.8015 6.10095 14.8015 6.94104C14.8015 7.51018 14.7974 8.07533 14.7932 8.63615C14.7725 11.4485 14.7526 14.1519 15.2627 16.7026C15.4275 17.5264 14.8932 18.3277 14.0694 18.4925C13.2457 18.6573 12.4443 18.123 12.2795 17.2992C11.7021 14.4121 11.7274 11.3359 11.7505 8.52576C11.7549 7.98667 11.7593 7.45736 11.7593 6.94104C11.7593 6.10095 12.4403 5.41992 13.2804 5.41992Z" fill="white"/>
<path fill-rule="evenodd" clip-rule="evenodd" d="M14.7983 23.0775C14.8543 23.0481 14.9275 23.0061 15.0062 22.9498C15.0557 22.9143 15.1202 22.864 15.1891 22.7974C15.2559 22.7327 15.3478 22.6326 15.4332 22.494C15.5191 22.3547 15.6168 22.1461 15.6504 21.8774C15.6859 21.5934 15.6415 21.3018 15.5173 21.0369C15.3993 20.7852 15.2358 20.613 15.1038 20.5041C14.9732 20.3963 14.8486 20.3298 14.761 20.2897C14.5922 20.2126 14.4453 20.1821 14.3702 20.1689C14.2839 20.1537 14.2089 20.1476 14.1538 20.1449C14.0445 20.1395 13.9427 20.1442 13.8557 20.1533C13.78 20.1611 13.6469 20.1791 13.4954 20.2272C13.4319 20.2474 13.2649 20.3032 13.0829 20.4269C12.9896 20.4904 12.8302 20.6132 12.6881 20.816C12.5347 21.0348 12.3891 21.3694 12.4139 21.7844C12.4382 22.1905 12.6149 22.4906 12.7649 22.671C12.9081 22.8432 13.0578 22.9465 13.1457 23.0003C13.3174 23.1056 13.4727 23.154 13.5348 23.1724C13.6638 23.2106 13.7856 23.23 13.868 23.2409C14.0229 23.2632 14.1821 23.2617 14.3399 23.2346C14.502 23.2069 14.6565 23.1532 14.7983 23.0775Z" fill="white"/>
</svg>
