<svg width="34" height="34" viewBox="0 0 34 34" fill="none" xmlns="http://www.w3.org/2000/svg">
<g filter="url(#filter0_d_82_2144)">
<circle cx="17" cy="17" r="14" fill="white"/>
</g>
<path fill-rule="evenodd" clip-rule="evenodd" d="M12.5626 11.0927C12.1721 10.7022 11.5389 10.7022 11.1484 11.0927C10.7578 11.4832 10.7578 12.1164 11.1484 12.5069L15.7358 17.0943L11.1493 21.6809C10.7588 22.0714 10.7588 22.7045 11.1493 23.0951C11.5398 23.4856 12.173 23.4856 12.5635 23.0951L17.15 18.5086L21.7365 23.0951C22.127 23.4856 22.7602 23.4856 23.1507 23.0951C23.5413 22.7045 23.5413 22.0714 23.1507 21.6809L18.5642 17.0943L23.1517 12.5069C23.5422 12.1164 23.5422 11.4832 23.1517 11.0927C22.7611 10.7022 22.128 10.7022 21.7375 11.0927L17.15 15.6801L12.5626 11.0927Z" fill="black"/>
<defs>
<filter id="filter0_d_82_2144" x="0" y="0" width="34" height="34" filterUnits="userSpaceOnUse" color-interpolation-filters="sRGB">
<feFlood flood-opacity="0" result="BackgroundImageFix"/>
<feColorMatrix in="SourceAlpha" type="matrix" values="0 0 0 0 0 0 0 0 0 0 0 0 0 0 0 0 0 0 127 0" result="hardAlpha"/>
<feOffset/>
<feGaussianBlur stdDeviation="1.5"/>
<feComposite in2="hardAlpha" operator="out"/>
<feColorMatrix type="matrix" values="0 0 0 0 0 0 0 0 0 0 0 0 0 0 0 0 0 0 0.25 0"/>
<feBlend mode="normal" in2="BackgroundImageFix" result="effect1_dropShadow_82_2144"/>
<feBlend mode="normal" in="SourceGraphic" in2="effect1_dropShadow_82_2144" result="shape"/>
</filter>
</defs>
</svg>
