<svg width="22" height="25" viewBox="0 0 22 25" fill="none" xmlns="http://www.w3.org/2000/svg">
<path fill-rule="evenodd" clip-rule="evenodd" d="M9.83463 11.4922C9.42615 10.8359 9.71207 10.0345 10.1805 9.41951C10.8293 8.56776 11.3365 7.36427 10.7507 6.166C9.68185 3.97994 7.71737 1.20011 7.26954 0.90323C7.26554 0.900578 7.26135 0.897798 7.25698 0.894893C6.77182 0.572675 4.00415 -1.26547 1.15957 3.53375C-0.751069 6.75726 2.2008 12.2702 4.77288 15.8201C4.77312 15.8204 4.77304 15.8209 4.7727 15.8211C4.77236 15.8213 4.77228 15.8218 4.77252 15.8221C4.98493 16.1175 5.22481 16.4365 5.48862 16.7718C5.75125 17.1079 6.00385 17.417 6.23997 17.6937C6.24024 17.6941 6.24071 17.6941 6.24102 17.6938C6.24133 17.6936 6.24179 17.6936 6.24206 17.6939C9.07577 21.0387 13.7252 25.2206 17.3115 24.1342C22.6508 22.5168 21.5261 19.3905 21.3289 18.8425C21.3271 18.8375 21.3254 18.8328 21.3238 18.8283C21.1423 18.3225 18.9115 15.7516 17.0436 14.1921C16.0197 13.3372 14.7299 13.5427 13.748 13.9695C13.039 14.2777 12.1925 14.3642 11.6526 13.8109C11.2784 13.4275 10.9614 13.0209 10.6829 12.6992C10.4369 12.352 10.1177 11.9471 9.83463 11.4922Z" fill="black"/>
</svg>
