<svg width="91" height="25" viewBox="0 0 91 25" fill="none" xmlns="http://www.w3.org/2000/svg">
<path d="M5.78 17.8C6.48 17.8 7.32 17.4 7.92 16.8L9.7 18.7C8.76 19.66 7.18 20.34 5.86 20.34C2.68 20.34 0.42 18.1 0.42 14.94C0.42 11.76 2.68 9.52 5.86 9.52C7.32 9.52 8.72 10.16 9.7 11.16L7.92 13.04C7.3 12.46 6.48 12.08 5.78 12.08C4.18 12.08 3.14 13.2 3.14 14.94C3.14 16.66 4.18 17.8 5.78 17.8ZM15.7284 18.14C17.2684 18.14 18.2484 16.9 18.2484 14.96C18.2484 13 17.2684 11.74 15.7284 11.74C14.1884 11.74 13.2084 13 13.2084 14.96C13.2084 16.9 14.1884 18.14 15.7284 18.14ZM10.4884 14.96C10.4884 11.78 12.6484 9.54 15.7284 9.54C18.8084 9.54 20.9684 11.78 20.9684 14.96C20.9684 18.12 18.8084 20.36 15.7284 20.36C12.6484 20.36 10.4884 18.12 10.4884 14.96ZM30.1858 14.68C30.1858 12.84 29.3458 11.78 27.7458 11.78C26.4458 11.8 25.3258 12.88 25.3658 14.68V20.28H22.6458V9.54H25.3658V11.32C25.9258 10.32 27.0058 9.6 28.1658 9.6C30.1258 9.6 32.9058 10.56 32.9058 14.64V20.28H30.1858V14.68ZM41.7923 19.74C41.2323 20 40.7723 20.32 39.4323 20.32C37.4723 20.32 36.1123 18.84 36.1123 16.72V12.04H34.1923V9.7H36.1123V6.6H38.8323V9.7H41.5323V12.04H38.8323V16.72C38.8323 17.4 39.1923 17.92 39.7123 17.98C40.2723 18.02 40.8523 17.64 40.8723 17.64L41.7923 19.74ZM48.2503 18.18C49.7703 18.18 51.0103 16.78 51.0303 14.96C51.0103 13.14 49.7703 11.74 48.2503 11.74C46.6703 11.74 45.6303 13 45.6303 14.96C45.6303 16.9 46.6703 18.18 48.2503 18.18ZM42.9103 14.96C42.9103 11.8 45.0103 9.56 47.9903 9.56C49.1103 9.56 50.2303 10.06 51.0303 11.06V9.54H53.7503V20.28L51.0303 20.3V18.84C50.2303 19.84 49.1103 20.34 47.9903 20.34C45.0103 20.34 42.9103 18.12 42.9103 14.96ZM60.5847 17.8C61.2847 17.8 62.1247 17.4 62.7247 16.8L64.5047 18.7C63.5647 19.66 61.9847 20.34 60.6647 20.34C57.4847 20.34 55.2247 18.1 55.2247 14.94C55.2247 11.76 57.4847 9.52 60.6647 9.52C62.1247 9.52 63.5247 10.16 64.5047 11.16L62.7247 13.04C62.1047 12.46 61.2847 12.08 60.5847 12.08C58.9847 12.08 57.9447 13.2 57.9447 14.94C57.9447 16.66 58.9847 17.8 60.5847 17.8ZM72.7884 19.74C72.2284 20 71.7684 20.32 70.4284 20.32C68.4684 20.32 67.1084 18.84 67.1084 16.72V12.04H65.1884V9.7H67.1084V6.6H69.8284V9.7H72.5284V12.04H69.8284V16.72C69.8284 17.4 70.1884 17.92 70.7084 17.98C71.2684 18.02 71.8484 17.64 71.8684 17.64L72.7884 19.74Z" fill="black"/>
<path fill-rule="evenodd" clip-rule="evenodd" d="M90.7315 10.2929C90.3735 9.90237 89.7931 9.90237 89.4352 10.2929L85.5 14.5858L81.5648 10.2929C81.2069 9.90237 80.6265 9.90237 80.2685 10.2929C79.9105 10.6834 79.9105 11.3166 80.2685 11.7071L84.8518 16.7071C85.2098 17.0976 85.7902 17.0976 86.1482 16.7071L90.7315 11.7071C91.0895 11.3166 91.0895 10.6834 90.7315 10.2929Z" fill="black"/>
</svg>
