<svg width="25" height="25" viewBox="0 0 25 25" fill="none" xmlns="http://www.w3.org/2000/svg">
<path fill-rule="evenodd" clip-rule="evenodd" d="M6.71709 23.5856C6.2602 23.347 5.72832 23.2761 5.23714 23.4313L3.15003 24.091C1.77122 24.527 0.473203 23.229 0.908877 21.8502L1.56864 19.763C1.72413 19.2716 1.65292 18.74 1.4146 18.2831C-1.0457 13.5706 -0.29671 7.61903 3.66127 3.66103C8.54262 -1.22034 16.4574 -1.22034 21.3388 3.66103C26.2204 8.5427 26.2204 16.4572 21.3388 21.3389C17.3811 25.2966 11.4293 26.0456 6.71709 23.5856ZM14.1593 12.4711C14.1593 13.5871 13.3408 14.4501 12.3884 14.4501C11.3319 14.4501 10.5879 13.6316 10.5879 12.4711C10.5879 11.325 11.3319 10.5066 12.3884 10.5066C13.3408 10.5066 14.1593 11.3402 14.1593 12.4711ZM12.6413 5.26859C8.80217 5.26859 5.69199 8.37878 5.69199 12.2179C5.69199 16.0573 8.80217 19.1527 12.6413 19.1527C13.6489 19.1527 14.5947 18.9498 15.4451 18.5787C15.8651 18.3953 15.9933 17.8808 15.7593 17.4867C15.525 17.092 15.0164 16.9694 14.59 17.1397C13.9933 17.3786 13.3353 17.5158 12.6413 17.5158C9.70984 17.5158 7.34372 15.1348 7.34372 12.2179C7.34372 9.30129 9.70984 6.92032 12.6413 6.92032C15.5582 6.92032 17.9391 9.28646 17.9391 12.2179C17.9391 13.0364 17.6563 13.4828 17.3883 13.6615C17.1503 13.8103 16.9271 13.8699 16.7039 13.8699C15.8558 13.8699 15.573 13.1852 15.573 12.7687V9.91135C15.573 9.50881 15.2466 9.18241 14.8438 9.18241H14.318C14.2055 9.18241 14.1145 9.27338 14.1145 9.38557C14.1145 9.47131 14.064 9.53903 13.9951 9.57275C13.9314 9.60414 13.8524 9.60675 13.7832 9.56839C13.2571 9.27426 12.7703 9.18241 12.314 9.18241C10.4986 9.18241 9.20383 10.5365 9.20383 12.4711C9.20383 14.4204 10.4986 15.7893 12.314 15.7893C12.9232 15.7893 13.5179 15.6248 14.0933 15.2357C14.5357 14.9366 15.1655 14.9372 15.6579 15.1432C16.1304 15.3412 16.6263 15.4025 16.9271 15.4025C17.3735 15.4025 18.1176 15.1348 18.5788 14.7032C19.1145 14.2268 19.5908 13.3936 19.5908 12.2179C19.5908 8.37878 16.4658 5.26859 12.6413 5.26859Z" fill="black"/>
</svg>
