<svg width="33" height="33" viewBox="0 0 33 33" fill="none" xmlns="http://www.w3.org/2000/svg">
<g filter="url(#filter0_d_78_2517)">
<path fill-rule="evenodd" clip-rule="evenodd" d="M10.7171 23.5856C10.2602 23.347 9.72832 23.2761 9.23714 23.4313L7.15003 24.091C5.77122 24.527 4.4732 23.229 4.90888 21.8502L5.56864 19.763C5.72413 19.2716 5.65292 18.74 5.4146 18.2831C2.9543 13.5706 3.70329 7.61903 7.66127 3.66103C12.5426 -1.22034 20.4574 -1.22034 25.3388 3.66103C30.2204 8.5427 30.2204 16.4572 25.3388 21.3389C21.3811 25.2966 15.4293 26.0456 10.7171 23.5856ZM18.1593 12.4711C18.1593 13.5871 17.3408 14.4501 16.3884 14.4501C15.3319 14.4501 14.5879 13.6316 14.5879 12.4711C14.5879 11.325 15.3319 10.5066 16.3884 10.5066C17.3408 10.5066 18.1593 11.3402 18.1593 12.4711ZM16.6413 5.26859C12.8022 5.26859 9.69199 8.37878 9.69199 12.2179C9.69199 16.0573 12.8022 19.1527 16.6413 19.1527C17.6489 19.1527 18.5947 18.9498 19.4451 18.5787C19.8651 18.3953 19.9933 17.8808 19.7593 17.4867C19.525 17.092 19.0164 16.9694 18.59 17.1397C17.9933 17.3786 17.3353 17.5158 16.6413 17.5158C13.7098 17.5158 11.3437 15.1348 11.3437 12.2179C11.3437 9.30129 13.7098 6.92032 16.6413 6.92032C19.5582 6.92032 21.9391 9.28646 21.9391 12.2179C21.9391 13.0364 21.6563 13.4828 21.3883 13.6615C21.1503 13.8103 20.9271 13.8699 20.7039 13.8699C19.8558 13.8699 19.573 13.1852 19.573 12.7687V9.91135C19.573 9.50881 19.2466 9.18241 18.8438 9.18241H18.318C18.2055 9.18241 18.1145 9.27338 18.1145 9.38557C18.1145 9.47131 18.064 9.53903 17.9951 9.57275C17.9314 9.60414 17.8524 9.60675 17.7832 9.56839C17.2571 9.27426 16.7703 9.18241 16.314 9.18241C14.4986 9.18241 13.2038 10.5365 13.2038 12.4711C13.2038 14.4204 14.4986 15.7893 16.314 15.7893C16.9232 15.7893 17.5179 15.6248 18.0933 15.2357C18.5357 14.9366 19.1655 14.9372 19.6579 15.1432C20.1304 15.3412 20.6263 15.4025 20.9271 15.4025C21.3735 15.4025 22.1176 15.1348 22.5788 14.7032C23.1145 14.2268 23.5908 13.3936 23.5908 12.2179C23.5908 8.37878 20.4658 5.26859 16.6413 5.26859Z" fill="black"/>
</g>
<defs>
<filter id="filter0_d_78_2517" x="0" y="0" width="33" height="33" filterUnits="userSpaceOnUse" color-interpolation-filters="sRGB">
<feFlood flood-opacity="0" result="BackgroundImageFix"/>
<feColorMatrix in="SourceAlpha" type="matrix" values="0 0 0 0 0 0 0 0 0 0 0 0 0 0 0 0 0 0 127 0" result="hardAlpha"/>
<feOffset dy="4"/>
<feGaussianBlur stdDeviation="2"/>
<feComposite in2="hardAlpha" operator="out"/>
<feColorMatrix type="matrix" values="0 0 0 0 0 0 0 0 0 0 0 0 0 0 0 0 0 0 0.25 0"/>
<feBlend mode="normal" in2="BackgroundImageFix" result="effect1_dropShadow_78_2517"/>
<feBlend mode="normal" in="SourceGraphic" in2="effect1_dropShadow_78_2517" result="shape"/>
</filter>
</defs>
</svg>
