<svg width="24" height="22" viewBox="0 0 24 22" fill="none" xmlns="http://www.w3.org/2000/svg">
<path fill-rule="evenodd" clip-rule="evenodd" d="M12.9053 0.327081C12.3726 -0.109027 11.6274 -0.109027 11.0947 0.327082L0.573745 8.94086C-0.536908 9.85018 0.0728961 11.7268 1.47903 11.7268H1.9296C2.30449 11.7268 2.56761 12.127 2.55057 12.5219C2.54881 12.5629 2.54792 12.604 2.54792 12.6454V19.1554C2.54792 20.7264 3.7557 22 5.24557 22H6.50378C7.99365 22 9.20143 20.7264 9.20143 19.1554V16.4875C9.20143 14.9191 10.4072 13.6477 11.8945 13.6477C13.3819 13.6477 14.5876 14.9191 14.5876 16.4875V19.1554C14.5876 20.7264 15.7954 22 17.2853 22H18.5435C20.0334 22 21.2411 20.7264 21.2411 19.1554V12.6455C21.2411 12.6041 21.2403 12.5629 21.2385 12.5219C21.2214 12.127 21.4846 11.7268 21.8595 11.7268H22.521C23.9271 11.7268 24.5369 9.85018 23.4263 8.94086L12.9053 0.327081Z" fill="black"/>
</svg>
