<svg width="183" height="45" viewBox="0 0 183 45" fill="none" xmlns="http://www.w3.org/2000/svg">
<rect width="183" height="45" rx="5" fill="#FEE500"/>
<g clip-path="url(#clip0_580_6318)">
<path d="M27 14C21.477 14 17 17.4673 17 21.7447C17 24.5289 18.8971 26.9685 21.7438 28.3337C21.5345 29.099 20.9864 31.1053 20.8766 31.5346C20.7414 32.0675 21.0761 32.0604 21.2952 31.9168C21.4672 31.8046 24.0357 30.0943 25.1438 29.3559C25.7453 29.4431 26.3654 29.4893 27 29.4893C32.523 29.4893 37 26.0215 37 21.7447C37 17.4678 32.523 14 27 14Z" fill="#391B1B"/>
</g>
<path d="M70.8354 17.185C70.8354 21.205 69.7254 24.67 64.8354 27.13L63.9804 25.9C66.2754 24.745 67.6554 23.395 68.4204 21.79L64.2954 22.195L64.0854 20.8L68.9004 20.5C69.0804 19.87 69.1854 19.195 69.2454 18.475H64.7604V17.185H70.8354ZM72.6954 29.185V15.85H74.3154V21.085H76.2954V22.42H74.3154V29.185H72.6954ZM83.9458 17.185C83.9458 21.205 82.8358 24.67 77.9458 27.13L77.0908 25.9C79.3858 24.745 80.7658 23.395 81.5308 21.79L77.4058 22.195L77.1958 20.8L82.0108 20.5C82.1908 19.87 82.2958 19.195 82.3558 18.475H77.8708V17.185H83.9458ZM85.8058 29.185V15.85H87.4258V21.085H89.4058V22.42H87.4258V29.185H85.8058ZM96.2011 16.615C99.0361 16.615 101.121 18.04 101.121 20.215C101.121 22.195 99.4111 23.53 96.9961 23.77V26.26H102.246V27.565H90.1711V26.26H95.3911V23.77C92.9761 23.53 91.2811 22.195 91.2811 20.215C91.2811 18.04 93.3661 16.615 96.2011 16.615ZM92.8561 20.215C92.8561 21.64 94.2511 22.54 96.2011 22.54C98.1511 22.54 99.5461 21.64 99.5461 20.215C99.5461 18.79 98.1511 17.89 96.2011 17.89C94.2511 17.89 92.8561 18.79 92.8561 20.215ZM106.739 26.335H111.959V24.115H108.179V19.765H115.814V18.055H108.164V16.765H117.404V21.04H109.784V22.825H117.704V24.115H113.564V26.335H118.814V27.64H106.739V26.335ZM121.124 17.155H130.379V18.64C130.379 20.425 130.379 22.285 129.884 25.09L128.264 24.94C128.774 22.315 128.774 20.38 128.774 18.64V18.445H121.124V17.155ZM119.849 27.37V26.05H131.909V27.37H119.849ZM142.349 15.88H143.969V25.51H142.349V15.88ZM133.199 20.095C133.199 18.13 134.744 16.75 136.754 16.75C138.779 16.75 140.309 18.13 140.309 20.095C140.309 22.03 138.779 23.425 136.754 23.425C134.744 23.425 133.199 22.03 133.199 20.095ZM134.774 20.095C134.774 21.265 135.629 22.015 136.754 22.015C137.879 22.015 138.749 21.265 138.749 20.095C138.749 18.895 137.879 18.145 136.754 18.145C135.629 18.145 134.774 18.895 134.774 20.095ZM135.239 28.945V24.55H136.844V27.64H144.344V28.945H135.239Z" fill="black"/>
<defs>
<clipPath id="clip0_580_6318">
<rect width="20" height="18" fill="white" transform="translate(17 14)"/>
</clipPath>
</defs>
</svg>
