<svg width="183" height="45" viewBox="0 0 183 45" fill="none" xmlns="http://www.w3.org/2000/svg">
<rect width="183" height="45" rx="5" fill="#03C75A"/>
<path d="M29.8562 23.56L23.919 15H19V31H24.157V22.44L30.081 31H35V15H29.8562V23.56Z" fill="white"/>
<path d="M64.5204 17.215H66.1104V24.55C67.4154 24.52 68.6154 24.445 69.9954 24.16L70.2054 25.51C68.5404 25.87 67.0704 25.93 65.4204 25.93H64.5204V17.215ZM68.2254 21.505V20.185H71.0004V16.135H72.5154V28.555H71.0004V21.505H68.2254ZM73.8354 29.2V15.865H75.3654V29.2H73.8354ZM86.4358 15.85H88.0558V29.23H86.4358V15.85ZM77.4808 21.535C77.4808 18.655 78.9208 16.825 80.9308 16.825C82.9408 16.825 84.3808 18.655 84.3808 21.535C84.3808 24.43 82.9408 26.275 80.9308 26.275C78.9208 26.275 77.4808 24.43 77.4808 21.535ZM79.0408 21.535C79.0408 23.605 79.8058 24.805 80.9308 24.805C82.0558 24.805 82.8358 23.605 82.8358 21.535C82.8358 19.495 82.0558 18.295 80.9308 18.295C79.8058 18.295 79.0408 19.495 79.0408 21.535ZM99.6511 15.85H101.271V29.23H99.6511V21.97H96.9661V25.99H90.6661V16.915H92.2861V20.23H95.3761V16.915H96.9661V20.665H99.6511V15.85ZM92.2861 24.685H95.3761V21.505H92.2861V24.685ZM106.739 26.335H111.959V24.115H108.179V19.765H115.814V18.055H108.164V16.765H117.404V21.04H109.784V22.825H117.704V24.115H113.564V26.335H118.814V27.64H106.739V26.335ZM121.124 17.155H130.379V18.64C130.379 20.425 130.379 22.285 129.884 25.09L128.264 24.94C128.774 22.315 128.774 20.38 128.774 18.64V18.445H121.124V17.155ZM119.849 27.37V26.05H131.909V27.37H119.849ZM142.349 15.88H143.969V25.51H142.349V15.88ZM133.199 20.095C133.199 18.13 134.744 16.75 136.754 16.75C138.779 16.75 140.309 18.13 140.309 20.095C140.309 22.03 138.779 23.425 136.754 23.425C134.744 23.425 133.199 22.03 133.199 20.095ZM134.774 20.095C134.774 21.265 135.629 22.015 136.754 22.015C137.879 22.015 138.749 21.265 138.749 20.095C138.749 18.895 137.879 18.145 136.754 18.145C135.629 18.145 134.774 18.895 134.774 20.095ZM135.239 28.945V24.55H136.844V27.64H144.344V28.945H135.239Z" fill="white"/>
</svg>
