<svg width="248" height="92" viewBox="0 0 248 92" fill="none" xmlns="http://www.w3.org/2000/svg">
<path d="M171.116 45.8795C171.116 71.218 150.575 91.7589 125.237 91.7589C99.8984 91.7589 79.3574 71.218 79.3574 45.8795C79.3574 20.5409 99.8984 0 125.237 0C150.575 0 171.116 20.5409 171.116 45.8795Z" fill="white"/>
<path fill-rule="evenodd" clip-rule="evenodd" d="M203.264 1.5465C203.264 0.692391 202.564 0 201.702 0H175.157C174.295 0 173.596 0.692391 173.596 1.5465V62.3755V90.2124C173.596 91.0665 174.295 91.7589 175.157 91.7589H203.264H220.88C221.743 91.7589 222.442 91.0665 222.442 90.2124V63.922C222.442 63.0678 221.743 62.3755 220.88 62.3755H204.825C203.963 62.3755 203.264 61.6831 203.264 60.8289V1.5465Z" fill="white"/>
<path d="M246.434 61.9971C247.299 61.9971 248 62.6983 248 63.5634L248 90.1904C248 91.0555 247.299 91.7567 246.434 91.7567L225.902 91.7578C225.037 91.7578 224.336 91.0566 224.336 90.1915L224.336 63.5645C224.336 62.6994 225.037 61.9982 225.902 61.9982L246.434 61.9971Z" fill="#6BF65F"/>
<path fill-rule="evenodd" clip-rule="evenodd" d="M29.6088 0H1.55836C0.697702 0 0 0.692391 0 1.5465V32.992V90.2124C0 91.0665 0.697701 91.7589 1.55836 91.7589H28.0505C28.9111 91.7589 29.6088 91.0665 29.6088 90.2124V67.5127C29.6088 66.5924 30.4139 65.8788 31.3398 65.9307C31.9704 65.966 32.6056 65.9839 33.245 65.9839H43.6341C61.9948 65.9839 76.8791 51.2129 76.8791 32.992C76.8791 14.771 61.9948 0 43.6341 0H29.6088Z" fill="white"/>
</svg>
