<svg width="104" height="120" viewBox="0 0 104 120" fill="none" xmlns="http://www.w3.org/2000/svg">
<path fill-rule="evenodd" clip-rule="evenodd" d="M23.4162 45.4182H1.23243C0.551779 45.4182 0 45.9736 0 46.6587V71.8811V117.778C0 118.463 0.551778 119.018 1.23243 119.018H22.1838C22.8644 119.018 23.4162 118.463 23.4162 117.778V99.5703C23.4162 98.8321 24.0529 98.2597 24.7852 98.3013C25.2838 98.3297 25.7862 98.3441 26.2919 98.3441H34.5081C49.0287 98.3441 60.8 86.4962 60.8 71.8811C60.8 57.2661 49.0287 45.4182 34.5081 45.4182H23.4162Z" fill="black"/>
<path fill-rule="evenodd" clip-rule="evenodd" d="M36.9936 70.0823C37.8772 70.0823 38.5936 70.7986 38.5936 71.6823C38.5936 72.2729 38.6243 72.8729 38.6579 73.523L38.6586 73.5377C38.6913 74.1698 38.7265 74.85 38.7265 75.5374C38.7265 76.4211 38.0101 77.1374 37.1265 77.1374C36.2428 77.1374 35.5265 76.4211 35.5265 75.5374C35.5265 74.941 35.4957 74.3379 35.4622 73.6882L35.461 73.6654C35.4284 73.0362 35.3936 72.3613 35.3936 71.6823C35.3936 70.7986 36.1099 70.0823 36.9936 70.0823Z" fill="white"/>
<path fill-rule="evenodd" clip-rule="evenodd" d="M43.3764 69.4172C44.26 69.4172 44.9764 70.1336 44.9764 71.0172V74.6065C44.9764 75.4902 44.26 76.2065 43.3764 76.2065C42.4927 76.2065 41.7764 75.4902 41.7764 74.6065V71.0172C41.7764 70.1336 42.4927 69.4172 43.3764 69.4172Z" fill="white"/>
<path fill-rule="evenodd" clip-rule="evenodd" d="M40.3186 81.3049C40.3173 81.3056 40.3161 81.3062 40.3148 81.3068C40.3213 81.3034 40.3229 81.3028 40.3186 81.3049ZM39.9781 83.755C40.4232 84.1609 41.0892 84.2737 41.6602 83.9882C41.7722 83.9322 41.9371 83.8418 42.0973 83.7063C42.2062 83.6142 42.6124 83.2576 42.6681 82.6277C42.7382 81.8364 42.2269 81.3675 41.9824 81.2031C41.7468 81.0447 41.5185 80.9831 41.4223 80.9595C41.2005 80.9049 40.9864 80.8931 40.8631 80.8897C40.7326 80.8862 40.5731 80.8893 40.4274 80.9075C39.6054 81.0103 39.0223 81.76 39.125 82.582C39.1913 83.1126 39.5272 83.5437 39.9781 83.755ZM40.8013 83.8897C40.8013 83.8898 40.7985 83.8896 40.7932 83.889C40.7988 83.8893 40.8014 83.8896 40.8013 83.8897Z" fill="white"/>
<path fill-rule="evenodd" clip-rule="evenodd" d="M70.7714 18.4182C71.4104 18.4182 71.9283 18.9362 71.9283 19.5751C71.9283 21.5501 71.1861 23.4068 70.5431 25.0151C70.5334 25.0394 70.5237 25.0636 70.5141 25.0877C69.8296 26.8002 69.265 28.2456 69.265 29.6957C69.265 30.3346 68.7471 30.8526 68.1081 30.8526C67.4691 30.8526 66.9512 30.3346 66.9512 29.6957C66.9512 27.7653 67.6832 25.9349 68.3204 24.3416C68.3355 24.3039 68.3505 24.2664 68.3654 24.229C69.0477 22.522 69.6145 21.0577 69.6145 19.5751C69.6145 18.9362 70.1324 18.4182 70.7714 18.4182Z" fill="#45BE59"/>
<path fill-rule="evenodd" clip-rule="evenodd" d="M68.556 35.3158C68.5526 35.3206 68.5491 35.3254 68.5456 35.3302C68.3268 35.6313 67.9759 35.8301 67.5756 35.8382C67.2481 35.8449 67.0038 35.7213 66.8877 35.6523C66.7566 35.5745 66.6559 35.4861 66.5877 35.4194C66.4505 35.285 66.3387 35.1332 66.2572 34.999C66.1984 34.9021 66.0611 34.6644 66.0219 34.3706C66.0055 34.2478 65.9943 34.0965 66.003 33.9347C66.011 33.7871 66.0391 33.549 66.1564 33.3029C66.2854 33.0321 66.56 32.69 67.0433 32.5701C67.477 32.4625 67.848 32.5952 68.0643 32.7034C68.5876 32.965 69.1059 33.5386 69.0547 34.3106C69.0295 34.6902 68.8583 35.0532 68.556 35.3158Z" fill="#45BE59"/>
<path fill-rule="evenodd" clip-rule="evenodd" d="M78.6717 19.1023C79.3107 19.1023 79.8287 19.6203 79.8287 20.2592C79.8287 20.7057 79.6556 21.1018 79.5422 21.3298C79.4139 21.5876 79.2626 21.8199 79.1675 21.9636C78.4163 23.0977 77.7913 24.3072 77.1345 25.5956C76.5834 26.6766 76.0774 27.7063 75.8733 28.7016C75.8306 28.9098 75.7642 29.104 75.7069 29.2576C75.6694 29.358 75.6232 29.4733 75.5844 29.5702C75.5675 29.6123 75.552 29.651 75.5392 29.6834C75.4888 29.8115 75.4556 29.9038 75.4347 29.9778C75.422 30.0227 75.4183 30.0461 75.4173 30.0522C75.4112 30.6859 74.8956 31.1977 74.2604 31.1977C73.6215 31.1977 73.1035 30.6797 73.1035 30.0408C73.1035 29.5537 73.2869 29.0879 73.3856 28.8372L73.3863 28.8356C73.4141 28.7648 73.4388 28.7028 73.4607 28.6479C73.546 28.4334 73.5878 28.3285 73.6066 28.2366C73.8838 26.8852 74.544 25.5824 75.0731 24.5446C75.7247 23.2665 76.4046 21.9448 77.2384 20.6859C77.327 20.552 77.4102 20.4205 77.4704 20.2994C77.4945 20.251 77.5088 20.2161 77.5166 20.1943C77.5503 19.5855 78.0546 19.1023 78.6717 19.1023ZM77.523 20.174C77.523 20.174 77.5228 20.175 77.5222 20.1771C77.5227 20.1751 77.523 20.174 77.523 20.174Z" fill="#45BE59"/>
<path fill-rule="evenodd" clip-rule="evenodd" d="M73.9029 36.5566C74.0757 36.5816 74.2568 36.5677 74.4337 36.5088C74.8314 36.3762 75.1572 36.0818 75.311 35.6777C75.4509 35.3103 75.4173 34.9363 75.2956 34.6402C75.1799 34.3586 74.9121 33.9896 74.4245 33.8508C73.8646 33.6914 73.3866 33.9341 73.1112 34.2095C72.748 34.5728 72.397 35.3683 72.9536 36.0682C73.1946 36.3712 73.5438 36.5369 73.9029 36.5566Z" fill="#45BE59"/>
<path fill-rule="evenodd" clip-rule="evenodd" d="M84.2338 21.5962C84.8727 21.5962 85.3907 22.1142 85.3907 22.7531C85.3907 23.1953 85.2278 23.5898 85.1383 23.7975C85.0782 23.937 85.0372 24.0252 85.0065 24.0911C84.9694 24.171 84.9474 24.2182 84.9251 24.2844C84.7409 24.8303 84.5171 25.3619 84.3125 25.8479C84.2804 25.9241 84.2488 25.9992 84.2178 26.0731C83.9819 26.6366 83.7774 27.1483 83.6326 27.6672C83.5769 27.8669 83.5211 28.0653 83.4656 28.2625C83.1756 29.2938 82.894 30.2949 82.6734 31.3013C82.6348 31.4777 82.5858 31.6686 82.5439 31.8319C82.5266 31.899 82.5106 31.9615 82.497 32.0164C82.444 32.2295 82.4075 32.4016 82.3888 32.5618C82.3847 32.5974 82.3819 32.632 82.3772 32.6884C82.3763 32.7004 82.3752 32.7133 82.374 32.7274C82.3682 32.7972 82.3596 32.8975 82.3437 33.0042C82.3115 33.22 82.2402 33.5351 82.0318 33.8477C81.6774 34.3794 80.9591 34.523 80.4274 34.1686C79.922 33.8317 79.7672 33.1659 80.0577 32.6442C80.0607 32.6204 80.0638 32.588 80.068 32.5366C80.0687 32.5286 80.0694 32.5197 80.0702 32.5102C80.0747 32.4541 80.0813 32.3734 80.0905 32.2945C80.1263 31.9863 80.1912 31.701 80.2513 31.4589C80.2747 31.3647 80.296 31.2819 80.3158 31.2049C80.3521 31.0638 80.3833 30.9423 80.4132 30.8059C80.6496 29.7273 80.9526 28.6505 81.2426 27.62C81.297 27.4267 81.351 27.235 81.4039 27.0452C81.5908 26.3757 81.8452 25.7487 82.0835 25.1795C82.1173 25.0987 82.1507 25.0193 82.1837 24.941C82.3902 24.4499 82.5777 24.0042 82.7326 23.5447C82.7814 23.4004 82.8411 23.2639 82.8872 23.1615C82.908 23.1153 82.9256 23.0769 82.9415 23.0421C82.9675 22.9852 82.9891 22.938 83.0133 22.8819C83.0482 22.8009 83.0668 22.7496 83.0763 22.7169C83.0768 22.7153 83.0772 22.7139 83.0775 22.7126C83.0989 22.0924 83.6084 21.5962 84.2338 21.5962ZM83.0809 22.6992C83.0809 22.6991 83.0808 22.6997 83.0806 22.7007L83.0809 22.6992ZM80.0522 32.6796C80.0522 32.6796 80.0523 32.6791 80.0525 32.6781L80.0522 32.6796Z" fill="#45BE59"/>
<path fill-rule="evenodd" clip-rule="evenodd" d="M80.5162 35.9977C81.1458 35.9841 81.749 36.383 81.9744 37.0592C82.1764 37.6654 81.8488 38.3206 81.2427 38.5227C81.108 38.5675 80.971 38.5863 80.837 38.5817C80.7361 38.6183 80.622 38.6432 80.4938 38.6502C79.8983 38.6825 79.5637 38.283 79.4939 38.1958C79.4392 38.1274 79.3852 38.0467 79.3377 37.956C79.3048 37.917 79.2712 37.8727 79.2392 37.8227C79.1543 37.6904 78.9469 37.3047 79.1041 36.8143C79.2685 36.3014 79.6881 36.1085 79.8622 36.0497C80.0495 35.9864 80.2154 35.9805 80.3014 35.9805C80.3765 35.9805 80.4481 35.9865 80.5162 35.9977Z" fill="#45BE59"/>
<path fill-rule="evenodd" clip-rule="evenodd" d="M80.3784 49.0533C91.9946 46.3846 99.2479 34.8044 96.5791 23.1882C93.9104 11.5721 82.3302 4.31876 70.714 6.98751C59.0979 9.65626 51.8446 21.2365 54.5133 32.8526C54.834 34.2484 55.2827 35.5797 55.8438 36.8374C56.3666 38.0094 56.44 39.4099 55.8658 40.6772L54.2629 44.2151C53.9298 44.9502 54.6587 45.7179 55.4101 45.4234L57.8651 44.4611C59.4567 43.8372 61.1749 44.1985 62.4216 45.1524C67.353 48.9256 73.8593 50.5511 80.3784 49.0533ZM98.3319 22.7855C101.223 35.3697 93.3653 47.9149 80.7811 50.8061C73.718 52.4288 66.6672 50.6654 61.3288 46.5807C60.5252 45.9658 59.4635 45.7662 58.5214 46.1354L56.0664 47.0978C53.8124 47.9813 51.6256 45.6782 52.6247 43.4729L54.2277 39.935C54.5679 39.1842 54.5372 38.3229 54.2014 37.57C53.5932 36.2067 53.1074 34.765 52.7606 33.2553C49.8694 20.6711 57.7272 8.12591 70.3114 5.23477C82.8955 2.34362 95.4407 10.2014 98.3319 22.7855Z" fill="black"/>
</svg>
