<svg width="20" height="20" viewBox="0 0 20 20" fill="none" xmlns="http://www.w3.org/2000/svg">
<path d="M20 10C20 15.5228 15.5228 20 10 20C4.47715 20 0 15.5228 0 10C0 4.47715 4.47715 0 10 0C15.5228 0 20 4.47715 20 10Z" fill="#6BF65F"/>
<path fill-rule="evenodd" clip-rule="evenodd" d="M9.62812 3.81836H5.84679C5.73077 3.81836 5.63672 3.91302 5.63672 4.0298V8.32908V16.1524C5.63672 16.2691 5.73077 16.3638 5.84679 16.3638H9.41805C9.53407 16.3638 9.62812 16.2691 9.62812 16.1524V13.0488C9.62812 12.923 9.73665 12.8254 9.86146 12.8325C9.94646 12.8374 10.0321 12.8398 10.1183 12.8398H11.5188C13.9939 12.8398 16.0004 10.8203 16.0004 8.32908C16.0004 5.83788 13.9939 3.81836 11.5188 3.81836H9.62812Z" fill="black"/>
</svg>
