<svg width="509" height="492" viewBox="0 0 609 592" fill="none" xmlns="http://www.w3.org/2000/svg">
<path fill-rule="evenodd" clip-rule="evenodd" d="M126.381 166.17L6.65163 192.38C2.97804 193.184 0.656156 196.833 1.46556 200.531L31.2654 336.66L85.4913 584.372C86.3007 588.069 89.9349 590.415 93.6085 589.611L206.686 564.857C210.36 564.053 212.682 560.404 211.872 556.706L190.361 458.437C189.488 454.453 192.249 450.612 196.25 449.971C198.975 449.535 201.703 449.019 204.432 448.422L248.776 438.714C327.146 421.559 376.68 343.706 359.413 264.827C342.145 185.947 264.616 135.91 186.246 153.065L126.381 166.17Z" fill="black"/>
<path fill-rule="evenodd" clip-rule="evenodd" d="M228.8 283.248C233.569 282.204 238.282 285.224 239.326 289.993C240.024 293.181 240.898 296.383 241.848 299.852L241.869 299.931C242.792 303.303 243.786 306.933 244.598 310.643C245.642 315.412 242.622 320.125 237.853 321.169C233.084 322.213 228.371 319.193 227.327 314.424C226.623 311.205 225.744 307.986 224.795 304.519L224.762 304.398C223.843 301.04 222.857 297.439 222.055 293.774C221.011 289.005 224.031 284.292 228.8 283.248Z" fill="white"/>
<path fill-rule="evenodd" clip-rule="evenodd" d="M262.455 272.121C267.225 271.077 271.937 274.097 272.981 278.866L277.222 298.238C278.266 303.008 275.246 307.72 270.477 308.764C265.707 309.808 260.995 306.788 259.951 302.019L255.71 282.647C254.666 277.878 257.686 273.165 262.455 272.121Z" fill="white"/>
<path fill-rule="evenodd" clip-rule="evenodd" d="M208.111 337C211.845 333.855 217.421 334.332 220.567 338.066C232.715 352.489 252.601 359.632 272.438 360.527C277.315 360.747 281.09 364.88 280.87 369.757C280.65 374.634 276.518 378.409 271.641 378.189C248.729 377.155 223.399 368.874 207.044 349.456C203.899 345.722 204.376 340.145 208.111 337Z" fill="white"/>
<path fill-rule="evenodd" clip-rule="evenodd" d="M490.996 239.762C550.428 231.824 592.174 177.211 584.236 117.778C576.299 58.3454 521.685 16.6 462.253 24.5371C402.82 32.4742 361.075 87.0881 369.012 146.521C369.966 153.662 371.591 160.54 373.813 167.102C375.884 173.217 375.597 180.267 372.128 186.346L362.445 203.318C360.434 206.844 363.726 211.031 367.627 209.907L380.374 206.234C388.638 203.853 397.075 206.466 402.874 211.827C425.811 233.032 457.641 244.216 490.996 239.762ZM593.204 116.58C601.803 180.966 556.579 240.131 492.193 248.729C456.056 253.555 421.563 241.426 396.732 218.47C392.995 215.015 387.77 213.519 382.879 214.928L370.132 218.6C358.428 221.972 348.552 209.414 354.587 198.835L364.27 181.863C366.325 178.261 366.574 173.932 365.244 170.004C362.835 162.891 361.076 155.443 360.044 147.718C351.446 83.333 396.67 24.1679 461.055 15.5694C525.441 6.97091 584.606 52.1951 593.204 116.58Z" fill="black"/>
</svg>
