<svg width="509" height="492" viewBox="0 0 609 592" fill="none" xmlns="http://www.w3.org/2000/svg">
<path fill-rule="evenodd" clip-rule="evenodd" d="M126.381 166.169L6.65163 192.379C2.97804 193.183 0.656156 196.832 1.46556 200.53L31.2654 336.66L85.4913 584.371C86.3007 588.068 89.9349 590.414 93.6085 589.61L206.686 564.856C210.36 564.052 212.682 560.403 211.872 556.705L190.361 458.436C189.488 454.452 192.249 450.611 196.25 449.97C198.975 449.534 201.703 449.018 204.432 448.421L248.776 438.713C327.146 421.558 376.68 343.705 359.413 264.826C342.145 185.946 264.616 135.909 186.246 153.064L126.381 166.169Z" fill="white"/>
<path fill-rule="evenodd" clip-rule="evenodd" d="M228.8 283.247C233.569 282.203 238.281 285.223 239.325 289.992C240.023 293.18 240.898 296.382 241.847 299.851L241.869 299.93C242.792 303.302 243.785 306.932 244.598 310.642C245.642 315.411 242.622 320.124 237.853 321.168C233.083 322.212 228.371 319.192 227.327 314.423C226.622 311.204 225.743 307.985 224.795 304.519L224.761 304.397C223.842 301.04 222.857 297.438 222.054 293.773C221.01 289.004 224.03 284.291 228.8 283.247Z" fill="black"/>
<path fill-rule="evenodd" clip-rule="evenodd" d="M262.456 272.12C267.225 271.076 271.938 274.096 272.982 278.865L277.222 298.237C278.266 303.007 275.246 307.719 270.477 308.763C265.708 309.807 260.995 306.787 259.951 302.018L255.711 282.646C254.667 277.877 257.687 273.164 262.456 272.12Z" fill="black"/>
<path fill-rule="evenodd" clip-rule="evenodd" d="M208.111 336.999C211.845 333.854 217.421 334.331 220.567 338.065C232.715 352.488 252.601 359.631 272.438 360.526C277.315 360.746 281.09 364.879 280.87 369.756C280.65 374.633 276.518 378.408 271.641 378.188C248.729 377.154 223.399 368.873 207.044 349.455C203.899 345.721 204.376 340.144 208.111 336.999Z" fill="black"/>
<path fill-rule="evenodd" clip-rule="evenodd" d="M490.995 239.762C550.427 231.824 592.173 177.211 584.236 117.778C576.298 58.3454 521.684 16.6 462.252 24.5371C402.819 32.4742 361.074 87.0881 369.011 146.521C369.965 153.662 371.59 160.54 373.812 167.102C375.883 173.217 375.596 180.267 372.127 186.346L362.444 203.318C360.433 206.844 363.725 211.031 367.626 209.907L380.373 206.234C388.637 203.853 397.074 206.466 402.873 211.827C425.81 233.032 457.64 244.216 490.995 239.762ZM593.203 116.58C601.802 180.966 556.578 240.131 492.192 248.729C456.055 253.555 421.562 241.426 396.731 218.47C392.994 215.015 387.769 213.519 382.878 214.928L370.131 218.6C358.427 221.972 348.551 209.414 354.586 198.835L364.269 181.863C366.324 178.261 366.573 173.932 365.243 170.004C362.834 162.891 361.075 155.443 360.043 147.718C351.445 83.333 396.669 24.1679 461.054 15.5694C525.44 6.97091 584.605 52.1951 593.203 116.58Z" fill="white"/>
</svg>
