<svg width="68" height="25" viewBox="0 0 68 25" fill="none" xmlns="http://www.w3.org/2000/svg">
<path d="M46.6211 12.5C46.6211 19.4036 41.0247 25 34.1211 25C27.2175 25 21.6211 19.4036 21.6211 12.5C21.6211 5.59644 27.2175 0 34.1211 0C41.0247 0 46.6211 5.59644 46.6211 12.5Z" fill="black"/>
<path fill-rule="evenodd" clip-rule="evenodd" d="M55.38 0.421348C55.38 0.188644 55.1895 0 54.9545 0H47.7223C47.4873 0 47.2969 0.188644 47.2969 0.421348V16.9944V24.5787C47.2969 24.8114 47.4873 25 47.7223 25H55.38H58.3579C58.5929 25 58.7834 24.8114 58.7834 24.5787V17.4157C58.7834 17.183 58.5929 16.9944 58.3579 16.9944H55.8054C55.5704 16.9944 55.38 16.8057 55.38 16.573V0.421348Z" fill="black"/>
<path d="M67.1416 16.8916C67.3773 16.8916 67.5684 17.0827 67.5684 17.3183L67.5684 24.573C67.5684 24.8087 67.3773 24.9997 67.1416 24.9997L59.887 24.9997C59.6513 24.9997 59.4603 24.8087 59.4603 24.573L59.4603 17.3183C59.4603 17.0827 59.6513 16.8916 59.887 16.8916L67.1416 16.8916Z" fill="#6BF65F"/>
<path fill-rule="evenodd" clip-rule="evenodd" d="M8.06702 0H0.42458C0.190091 0 0 0.188644 0 0.421348V8.98876V24.5787C0 24.8114 0.190091 25 0.42458 25H7.64244C7.87693 25 8.06702 24.8114 8.06702 24.5787V18.394C8.06702 18.1433 8.28637 17.9489 8.53863 17.963C8.71042 17.9726 8.88349 17.9775 9.05771 17.9775H11.8882C16.8907 17.9775 20.9459 13.9531 20.9459 8.98876C20.9459 4.02441 16.8907 0 11.8882 0H8.06702Z" fill="black"/>
</svg>
