<svg width="153" height="104" viewBox="0 0 153 104" fill="none" xmlns="http://www.w3.org/2000/svg">
<path fill-rule="evenodd" clip-rule="evenodd" d="M79.1216 0H47.7432C46.7805 0 46 0.784759 46 1.75281V37.3933V102.247C46 103.215 46.7805 104 47.7432 104H77.3784C78.3411 104 79.1216 103.215 79.1216 102.247V76.5192C79.1216 75.4762 80.0222 74.6673 81.058 74.7261C81.7633 74.7662 82.4739 74.7865 83.1892 74.7865H94.8108C115.35 74.7865 132 58.045 132 37.3933C132 16.7415 115.35 0 94.8108 0H79.1216Z" fill="black"/>
<path fill-rule="evenodd" clip-rule="evenodd" d="M99.4003 33C100.726 33 101.801 34.0153 101.801 35.2678C101.801 36.1049 101.847 36.9554 101.897 37.8769L101.898 37.8978C101.947 38.7936 102 39.7578 102 40.7322C102 41.9847 100.925 43 99.5997 43C98.2741 43 97.1994 41.9847 97.1994 40.7322C97.1994 39.8868 97.1533 39.0319 97.1029 38.1111L97.1011 38.0788C97.0523 37.187 97 36.2303 97 35.2678C97 34.0153 98.0746 33 99.4003 33Z" fill="white"/>
<path fill-rule="evenodd" clip-rule="evenodd" d="M108 32C109.105 32 110 33.0551 110 34.3567V39.6433C110 40.9449 109.105 42 108 42C106.895 42 106 40.9449 106 39.6433V34.3567C106 33.0551 106.895 32 108 32Z" fill="white"/>
<path fill-rule="evenodd" clip-rule="evenodd" d="M91.2308 45.2587C92.3562 44.6814 93.7488 45.1026 94.3411 46.1995C96.6291 50.4363 101.292 53.2875 106.29 54.5865C107.519 54.9058 108.249 56.1357 107.922 57.3334C107.594 58.531 106.332 59.243 105.103 58.9237C99.3303 57.4233 93.3457 53.994 90.2655 48.2901C89.6731 47.1933 90.1053 45.8361 91.2308 45.2587Z" fill="white"/>
<path fill-rule="evenodd" clip-rule="evenodd" d="M18.3616 4.07609C19.528 3.92528 20.6369 4.69783 20.8385 5.80162C21.1921 7.73742 20.9443 9.60568 20.6085 11.254C20.4563 12.0015 20.3009 12.6531 20.1546 13.2662C19.9456 14.1425 19.7553 14.9404 19.6195 15.8282C19.5498 16.2839 19.5017 16.7471 19.4678 17.2213C19.7883 17.4625 20.1072 17.6984 20.4263 17.9281C21.5654 17.8146 22.6795 17.684 23.7924 17.495C24.3746 17.3961 25.2966 17.0045 26.3045 16.3814C27.2912 15.7713 28.137 15.0783 28.5918 14.5678C29.2942 13.7796 30.5025 13.71 31.2907 14.4123C32.0789 15.1146 32.1485 16.3229 31.4461 17.1111C30.6715 17.9805 29.5041 18.8979 28.3149 19.6331C27.5325 20.1168 26.6385 20.5855 25.7433 20.9084C25.8213 20.9416 25.8999 20.9749 25.979 21.0085L25.9791 21.0085C26.3606 21.1703 26.7557 21.3378 27.1687 21.5195C28.5946 22.1465 30.1549 22.9147 31.5025 24.1155C32.2907 24.8178 32.3603 26.0261 31.658 26.8143C30.9556 27.6025 29.7473 27.6721 28.9591 26.9698C28.0797 26.1861 26.9796 25.6127 25.6297 25.019C25.3204 24.883 24.9902 24.7431 24.6466 24.5975L24.646 24.5972L24.6456 24.5971C23.58 24.1455 22.3857 23.6394 21.2898 23.0275C20.6386 22.664 20.0086 22.2729 19.397 21.8659C19.3786 21.8676 19.3602 21.8693 19.3418 21.871C19.3135 22.6917 19.2607 23.5325 19.1511 24.365C19.0219 25.346 19.1073 26.4749 19.262 27.8203C19.286 28.0291 19.3119 28.2449 19.3386 28.4661C19.473 29.5832 19.6241 30.8378 19.6215 32.023C19.619 33.1362 18.6575 34.0049 17.4739 33.9632C16.2903 33.9215 15.3327 32.9852 15.3352 31.8719C15.3372 30.941 15.2208 29.9663 15.0878 28.8523L15.0878 28.8523C15.0592 28.6128 15.0298 28.3668 15.0007 28.1135C14.8456 26.764 14.701 25.2184 14.897 23.7299C14.9576 23.2693 14.9978 22.8019 15.0252 22.3226C13.6096 22.5159 12.2459 22.7736 10.9222 23.1687C10.6979 23.2357 10.4658 23.3031 10.228 23.3721C9.2504 23.6559 8.17709 23.9674 7.15694 24.3922C5.82629 24.9462 5.06723 25.5096 4.78636 25.9884C4.25225 26.899 3.08106 27.2043 2.17044 26.6702C1.25982 26.1361 0.954594 24.9649 1.4887 24.0542C2.44308 22.4271 4.2396 21.4657 5.68741 20.8629C6.92842 20.3461 8.26446 19.9596 9.24525 19.6758L9.24582 19.6757C9.45831 19.6142 9.65411 19.5576 9.82865 19.5054C11.5009 19.0062 13.1878 18.7045 14.8411 18.4902C13.2303 17.2545 11.6904 16.1238 10.0077 15.2241C8.55727 14.4486 7.43295 13.5696 6.45747 12.0805C5.87897 11.1974 6.12588 10.0126 7.00896 9.43408C7.89204 8.85557 9.07689 9.10248 9.6554 9.98557C10.198 10.8138 10.7759 11.2996 11.8103 11.8527C13.1374 12.5623 14.3695 13.3845 15.5327 14.2297C15.6776 13.4902 15.8593 12.7167 16.0302 11.9893L16.0302 11.9892C16.1682 11.4021 16.2991 10.845 16.3978 10.36C16.7033 8.86066 16.8361 7.55869 16.6149 6.34776C16.4133 5.24396 17.1953 4.2269 18.3616 4.07609Z" fill="#45BE59"/>
<path fill-rule="evenodd" clip-rule="evenodd" d="M142.096 64C142.924 64 143.596 64.6716 143.596 65.5C143.596 66.7788 143.308 67.6654 143.021 68.5488L143.021 68.549C142.974 68.6922 142.928 68.8352 142.883 68.9798C142.592 69.9112 142.35 70.864 142.099 71.858L142.094 71.8765C144.479 71.1752 146.782 70.2905 148.731 69.3157C149.472 68.9452 150.373 69.2455 150.744 69.9865C151.114 70.7275 150.814 71.6285 150.073 71.999C148.459 72.8059 146.628 73.5547 144.703 74.2002C145.37 74.6403 146.028 75.0295 146.635 75.3328C147.376 75.7033 147.676 76.6043 147.305 77.3452C146.935 78.0862 146.034 78.3866 145.293 78.0161C143.972 77.3557 142.511 76.3911 141.171 75.3625C141.091 75.8511 141.083 76.4014 141.073 77.096L141.069 77.361C141.054 78.3214 141.018 79.6047 140.429 80.7836C140.058 81.5245 139.157 81.8249 138.416 81.4544C137.675 81.0839 137.375 80.1829 137.746 79.4419C137.993 78.9479 138.054 78.3144 138.07 77.314C138.071 77.2208 138.072 77.1234 138.073 77.0223V77.0223V77.0223C138.077 76.6853 138.08 76.3077 138.104 75.9093C136.547 76.1926 135.018 76.3812 133.575 76.4533C132.748 76.4947 132.043 75.8575 132.002 75.0301C131.961 74.2027 132.598 73.4984 133.425 73.457C134.926 73.382 136.544 73.1658 138.193 72.8388C137.859 72.5648 137.511 72.2945 137.144 72.0092L137.143 72.0087L137.143 72.0085C137.02 71.9131 136.895 71.816 136.768 71.7166C135.997 71.1143 135.161 70.44 134.405 69.6231C134.107 69.3015 133.946 68.9678 133.849 68.7189C133.835 68.6835 133.822 68.6486 133.81 68.6153C133.195 68.3736 132.792 67.7421 132.869 67.0535C132.96 66.2301 133.702 65.6368 134.525 65.7283C134.962 65.7769 135.421 65.9187 135.817 66.2441C136.207 66.5647 136.392 66.9476 136.489 67.19C136.533 67.3 136.569 67.4079 136.59 67.4729L136.594 67.4832C136.618 67.5582 136.63 67.5936 136.642 67.6229C137.214 68.2338 137.872 68.7726 138.614 69.3522C138.727 69.4402 138.842 69.5297 138.96 69.6208C139.127 69.7505 139.298 69.8835 139.472 70.0199C139.639 69.381 139.817 68.7313 140.019 68.085C140.077 67.8997 140.131 67.7323 140.18 67.5785C140.456 66.7164 140.596 66.2802 140.596 65.5C140.596 64.6716 141.267 64 142.096 64Z" fill="#45BE59"/>
<path fill-rule="evenodd" clip-rule="evenodd" d="M150.026 59.0065C149.603 58.7265 149.361 58.3132 149.223 58.0364C149.16 57.9115 149.059 57.6903 149.018 57.4192C148.983 57.1896 148.932 56.4455 149.601 55.9271C149.679 55.8663 149.758 55.8163 149.837 55.7752C149.915 55.6689 150.003 55.5652 150.102 55.4715C150.236 55.3446 150.529 55.1018 150.974 55.0239C151.215 54.9816 151.483 54.9922 151.75 55.0819C152.013 55.1701 152.216 55.3148 152.363 55.4608C152.634 55.7296 152.744 56.0289 152.79 56.1798C152.843 56.3537 152.864 56.5151 152.874 56.6383C152.894 56.8864 152.878 57.1361 152.844 57.355C152.811 57.575 152.751 57.8273 152.651 58.0732C152.569 58.2731 152.377 58.6835 151.961 58.9804C151.724 59.1496 151.393 59.2942 150.993 59.2978C150.595 59.3015 150.265 59.165 150.026 59.0065Z" fill="#45BE59"/>
<path fill-rule="evenodd" clip-rule="evenodd" d="M26.2056 50.3252C26.5271 49.5617 26.1687 48.6822 25.4051 48.3608C24.6416 48.0393 23.7621 48.3977 23.4406 49.1613C23.0974 49.9766 22.8925 50.8023 22.7534 51.5918C21.9776 51.4244 21.2439 51.2595 20.5329 51.0515C19.7378 50.8188 18.9047 51.2748 18.6721 52.0699C18.4394 52.8649 18.8954 53.6981 19.6904 53.9307C20.5652 54.1867 21.4902 54.3895 22.3641 54.5771C22.2462 55.4207 22.0929 56.1637 21.7959 56.8692C21.4745 57.6327 21.8329 58.5122 22.5964 58.8336C23.36 59.1551 24.2395 58.7967 24.5609 58.0331C24.949 57.1113 25.1567 56.1704 25.2935 55.2837C25.366 55.3059 25.4379 55.3284 25.509 55.3514C25.6672 55.6119 25.9061 55.8267 26.2085 55.954L26.888 56.2401C27.6516 56.5615 28.5311 56.2032 28.8525 55.4396C29.1393 54.7584 28.8849 53.9848 28.2844 53.5977C28.1289 53.2959 27.8707 53.0449 27.5333 52.9029C26.9338 52.6505 26.3082 52.4465 25.6813 52.2725C25.7947 51.5757 25.9474 50.9386 26.2056 50.3252Z" fill="#45BE59"/>
</svg>
