<svg width="76" height="92" viewBox="0 0 76 92" fill="none" xmlns="http://www.w3.org/2000/svg">
<path fill-rule="evenodd" clip-rule="evenodd" d="M29.143 0H1.53384C0.686725 0 0 0.691192 0 1.54382V32.9348V90.0562C0 90.9088 0.686724 91.6 1.53384 91.6H27.6092C28.4563 91.6 29.143 90.9088 29.143 90.0562V67.3958C29.143 66.4771 29.9354 65.7647 30.8468 65.8165C31.4674 65.8518 32.0926 65.8697 32.722 65.8697H42.9476C61.0194 65.8697 75.6696 51.1242 75.6696 32.9348C75.6696 14.7454 61.0194 0 42.9476 0H29.143Z" fill="black"/>
<path fill-rule="evenodd" clip-rule="evenodd" d="M46.0411 30.696C47.1409 30.696 48.0324 31.5876 48.0324 32.6873C48.0324 33.4224 48.0707 34.1691 48.1125 34.9783L48.1134 34.9966C48.1541 35.7832 48.1979 36.6298 48.1979 37.4853C48.1979 38.5851 47.3063 39.4767 46.2066 39.4767C45.1068 39.4767 44.2153 38.5851 44.2153 37.4853C44.2153 36.7431 44.177 35.9924 44.1352 35.1839L44.1337 35.1555C44.0932 34.3725 44.0498 33.5325 44.0498 32.6873C44.0498 31.5876 44.9413 30.696 46.0411 30.696Z" fill="white"/>
<path fill-rule="evenodd" clip-rule="evenodd" d="M53.9845 29.8684C55.0842 29.8684 55.9758 30.7599 55.9758 31.8597V36.3268C55.9758 37.4266 55.0842 38.3181 53.9845 38.3181C52.8847 38.3181 51.9932 37.4266 51.9932 36.3268V31.8597C51.9932 30.7599 52.8847 29.8684 53.9845 29.8684Z" fill="white"/>
<path fill-rule="evenodd" clip-rule="evenodd" d="M46.177 48.1545C46.6977 48.7285 47.5851 48.7717 48.1591 48.251C50.3762 46.2399 53.6561 45.5384 56.7956 45.8185C57.5675 45.8874 58.2491 45.3175 58.318 44.5456C58.3869 43.7737 57.817 43.0921 57.0451 43.0232C53.4189 42.6996 49.2585 43.4648 46.2736 46.1724C45.6996 46.693 45.6563 47.5805 46.177 48.1545Z" fill="white"/>
<path d="M47.048 47.5997C47.0135 49.5027 45.3828 51.0164 43.4056 50.9806C41.4284 50.9448 39.8535 49.373 39.888 47.47C39.9146 46.0012 42.1016 43.0266 43.0984 41.7453C43.344 41.4296 43.813 41.4381 44.047 41.7624C44.9968 43.079 47.0746 46.131 47.048 47.5997Z" fill="#6BF65F"/>
</svg>
