<svg width="144" height="110" viewBox="0 0 144 110" fill="none" xmlns="http://www.w3.org/2000/svg">
<path fill-rule="evenodd" clip-rule="evenodd" d="M129.568 61.2703C127.46 60.6233 126.276 58.3903 126.924 56.283L127.723 53.6803C128.685 50.5471 126.925 47.2271 123.791 46.265C120.658 45.303 117.338 47.063 116.376 50.1963L110.774 68.4427C109.811 71.5759 111.572 74.8959 114.705 75.858V75.858C115.478 76.0955 116.053 76.8841 115.816 77.6578L114.075 83.3261C114.04 83.4399 114.104 83.5606 114.218 83.5955V83.5955C114.46 83.6698 114.404 83.956 114.154 83.914C113.556 83.8133 112.957 83.6723 112.361 83.4894C105.014 81.2331 100.886 73.4474 103.142 66.0994L108.745 47.853C111.001 40.505 118.787 36.3774 126.135 38.6336C133.483 40.8899 137.61 48.6756 135.354 56.0236L134.555 58.6263C133.908 60.7336 131.675 61.9174 129.568 61.2703V61.2703Z" fill="#45BE59"/>
<path d="M96.557 68.0857C99.0777 59.8765 109.321 55.7396 119.436 58.8455Lnan nanLnan nanL119.436 58.8455C129.552 61.9515 135.708 71.1243 133.188 79.3335L127.754 97.0301C127.323 98.435 125.834 99.2242 124.429 98.7928L92.8858 89.1073C91.4809 88.6759 90.6917 87.1873 91.1231 85.7824L96.557 68.0857Z" fill="black"/>
<path fill-rule="evenodd" clip-rule="evenodd" d="M113.333 81.5606C115.224 81.7459 117.047 80.5833 117.627 78.6962C118.288 76.5421 117.078 74.2595 114.924 73.5981C112.77 72.9366 110.487 74.1467 109.826 76.3009C109.246 78.1879 110.103 80.1734 111.772 81.0815L109.952 87.0103C109.82 87.4411 110.062 87.8976 110.493 88.0299C110.923 88.1622 111.38 87.9202 111.512 87.4893L113.333 81.5606Z" fill="white"/>
<path fill-rule="evenodd" clip-rule="evenodd" d="M34.771 0H1.83005C0.819343 0 0 0.823839 0 1.8401V39.2554V107.339C0 108.355 0.819342 109.179 1.83005 109.179H32.941C33.9517 109.179 34.771 108.355 34.771 107.339V80.3298C34.771 79.2347 35.7165 78.3856 36.8038 78.4474C37.5442 78.4894 38.2902 78.5107 39.0411 78.5107H51.2415C72.8033 78.5107 90.2826 60.9355 90.2826 39.2554C90.2826 17.5752 72.8033 0 51.2415 0H34.771Z" fill="black"/>
<path fill-rule="evenodd" clip-rule="evenodd" d="M56.0589 34.6431C57.4505 34.6431 58.5787 35.709 58.5787 37.0238C58.5787 37.9026 58.6271 38.7954 58.68 39.7629L58.6812 39.7847C58.7327 40.7252 58.7881 41.7374 58.7881 42.7603C58.7881 44.0751 57.6599 45.141 56.2682 45.141C54.8766 45.141 53.7484 44.0751 53.7484 42.7603C53.7484 41.8728 53.7 40.9753 53.6471 40.0087L53.6452 39.9747C53.594 39.0385 53.5391 38.0343 53.5391 37.0238C53.5391 35.709 54.6672 34.6431 56.0589 34.6431Z" fill="white"/>
<path fill-rule="evenodd" clip-rule="evenodd" d="M65.0879 33.5935C66.2475 33.5935 67.1875 34.7012 67.1875 36.0675V41.6175C67.1875 42.9838 66.2475 44.0915 65.0879 44.0915C63.9283 44.0915 62.9883 42.9838 62.9883 41.6175V36.0675C62.9883 34.7012 63.9283 33.5935 65.0879 33.5935Z" fill="white"/>
<path fill-rule="evenodd" clip-rule="evenodd" d="M47.4835 47.5123C48.665 46.9063 50.1269 47.3485 50.7487 48.5C53.1506 52.9477 58.0456 55.9409 63.2926 57.3046C64.5826 57.6399 65.3496 58.9309 65.0055 60.1883C64.6615 61.4456 63.3368 62.193 62.0468 61.8578C55.9864 60.2827 49.7038 56.6827 46.4701 50.6947C45.8483 49.5432 46.302 48.1184 47.4835 47.5123Z" fill="white"/>
</svg>
