<svg width="38" height="35" viewBox="0 0 38 35" fill="none" xmlns="http://www.w3.org/2000/svg">
<g clip-path="url(#clip0_540_1290)">
<path d="M27.1771 12.9589L22.734 8.604L24.1976 7.15236C24.5984 6.75489 25.0908 6.55615 25.6748 6.55615C26.2589 6.55615 26.7509 6.75489 27.151 7.15236L28.6146 8.604C29.0154 9.00147 29.2245 9.48121 29.2419 10.0432C29.2593 10.6052 29.0677 11.0846 28.6669 11.4814L27.1771 12.9589ZM25.6612 14.4883L14.5794 25.4793H10.1362V21.0725L21.218 10.0816L25.6612 14.4883Z" fill="#C7C7C7"/>
<path d="M20.5 0.5H17.5C8.11116 0.5 0.5 8.11116 0.5 17.5C0.5 26.8888 8.11116 34.5 17.5 34.5H20.5C29.8888 34.5 37.5 26.8888 37.5 17.5C37.5 8.11116 29.8888 0.5 20.5 0.5Z" stroke="#C7C7C7"/>
</g>
<defs>
<clipPath id="clip0_540_1290">
<rect width="38" height="35" fill="white"/>
</clipPath>
</defs>
</svg>
