<svg width="28" height="28" viewBox="0 0 28 28" fill="none" xmlns="http://www.w3.org/2000/svg">
<path fill-rule="evenodd" clip-rule="evenodd" d="M14.0139 27.3169C21.4429 27.3169 27.4653 21.2945 27.4653 13.8655C27.4653 6.43647 21.4429 0.414062 14.0139 0.414062C6.58491 0.414062 0.5625 6.43647 0.5625 13.8655C0.5625 21.2945 6.58491 27.3169 14.0139 27.3169ZM16.6438 6.95124C16.5622 6.62248 16.2692 6.39185 15.933 6.39185H12.0951C11.7589 6.39185 11.4658 6.62248 11.3843 6.95124L11.039 8.34338C10.9575 8.67214 10.6644 8.90278 10.3282 8.90278H7.27366C6.86903 8.90278 6.54102 9.23342 6.54102 9.64129V18.208C6.54102 18.6159 6.86903 18.9465 7.27366 18.9465H20.7544C21.159 18.9465 21.487 18.6159 21.487 18.208V9.64129C21.487 9.23342 21.159 8.90278 20.7544 8.90278H17.6998C17.3636 8.90278 17.0706 8.67214 16.989 8.34338L16.6438 6.95124ZM17.7505 13.9246C17.7505 16.0048 16.0776 17.691 14.014 17.691C11.9504 17.691 10.2775 16.0048 10.2775 13.9246C10.2775 11.8445 11.9504 10.1582 14.014 10.1582C16.0776 10.1582 17.7505 11.8445 17.7505 13.9246ZM14.014 16.4356C15.3898 16.4356 16.505 15.3114 16.505 13.9246C16.505 12.5379 15.3898 11.4137 14.014 11.4137C12.6383 11.4137 11.523 12.5379 11.523 13.9246C11.523 15.3114 12.6383 16.4356 14.014 16.4356ZM18.996 10.786C18.996 11.1327 18.7172 11.4137 18.3733 11.4137C18.0293 11.4137 17.7505 11.1327 17.7505 10.786C17.7505 10.4393 18.0293 10.1582 18.3733 10.1582C18.7172 10.1582 18.996 10.4393 18.996 10.786Z" fill="black"/>
</svg>
