<svg width="148" height="110" viewBox="0 0 148 110" fill="none" xmlns="http://www.w3.org/2000/svg">
<path fill-rule="evenodd" clip-rule="evenodd" d="M34.771 0H1.83005C0.819343 0 0 0.823839 0 1.8401V39.2554V107.339C0 108.355 0.819342 109.179 1.83005 109.179H32.941C33.9517 109.179 34.771 108.355 34.771 107.339V80.3298C34.771 79.2347 35.7165 78.3856 36.8038 78.4474C37.5442 78.4894 38.2902 78.5107 39.0411 78.5107H51.2415C72.8033 78.5107 90.2826 60.9355 90.2826 39.2554C90.2826 17.5752 72.8033 0 51.2415 0H34.771Z" fill="black"/>
<path fill-rule="evenodd" clip-rule="evenodd" d="M56.0589 34.6431C57.4505 34.6431 58.5787 35.709 58.5787 37.0238C58.5787 37.9026 58.6271 38.7954 58.68 39.7629L58.6812 39.7847C58.7327 40.7252 58.7881 41.7374 58.7881 42.7603C58.7881 44.0751 57.6599 45.141 56.2682 45.141C54.8766 45.141 53.7484 44.0751 53.7484 42.7603C53.7484 41.8728 53.7 40.9753 53.6471 40.0087L53.6452 39.9747C53.594 39.0385 53.5391 38.0343 53.5391 37.0238C53.5391 35.709 54.6672 34.6431 56.0589 34.6431Z" fill="white"/>
<path fill-rule="evenodd" clip-rule="evenodd" d="M65.0879 33.5935C66.2475 33.5935 67.1875 34.7012 67.1875 36.0675V41.6175C67.1875 42.9838 66.2475 44.0915 65.0879 44.0915C63.9283 44.0915 62.9883 42.9838 62.9883 41.6175V36.0675C62.9883 34.7012 63.9283 33.5935 65.0879 33.5935Z" fill="white"/>
<path fill-rule="evenodd" clip-rule="evenodd" d="M47.4835 47.5123C48.665 46.9063 50.1269 47.3485 50.7487 48.5C53.1506 52.9477 58.0456 55.9409 63.2926 57.3046C64.5826 57.6399 65.3496 58.9309 65.0055 60.1883C64.6615 61.4456 63.3368 62.193 62.0468 61.8578C55.9864 60.2827 49.7038 56.6827 46.4701 50.6947C45.8483 49.5432 46.302 48.1184 47.4835 47.5123Z" fill="white"/>
<path fill-rule="evenodd" clip-rule="evenodd" d="M131.82 61.2593C129.691 60.6888 128.427 58.5001 128.998 56.3707L129.703 53.7409C130.551 50.5749 128.672 47.3207 125.506 46.4724C122.34 45.6241 119.086 47.5029 118.238 50.6688L113.298 69.1057C112.449 72.2716 114.328 75.5258 117.494 76.3742C118.276 76.5836 118.879 77.351 118.67 78.1327L117.135 83.8601C117.104 83.9752 117.172 84.0934 117.287 84.1242C117.532 84.1898 117.486 84.4778 117.235 84.4448C116.633 84.3658 116.03 84.2465 115.428 84.0852C108.003 82.0958 103.597 74.4642 105.587 67.0395L110.527 48.6027C112.516 41.178 120.148 36.7719 127.572 38.7614C134.997 40.7508 139.403 48.3824 137.414 55.807L136.709 58.4369C136.139 60.5662 133.95 61.8299 131.82 61.2593Z" fill="#45BE59"/>
<path d="M95.6864 75.666C98.6167 64.7299 109.872 58.2438 120.826 61.1789L121.727 61.4205C132.681 64.3556 139.186 75.6003 136.255 86.5364L131.726 103.44C131.297 105.04 129.652 105.99 128.052 105.561L93.2784 96.2439C91.678 95.8151 90.7282 94.1701 91.1571 92.5697L95.6864 75.666Z" fill="black"/>
<path fill-rule="evenodd" clip-rule="evenodd" d="M115.879 86.4351C117.958 86.533 119.896 85.1784 120.457 83.0865C121.103 80.6736 119.672 78.1934 117.259 77.5469C114.846 76.9003 112.366 78.3323 111.719 80.7452C111.159 82.8364 112.16 84.9781 114.007 85.9329L112.224 92.5873C112.086 93.1043 112.392 93.6358 112.909 93.7743C113.427 93.9129 113.958 93.606 114.097 93.089L115.879 86.4351Z" fill="white"/>
</svg>
