<svg width="172" height="147" viewBox="0 0 122 107" fill="none" xmlns="http://www.w3.org/2000/svg">
<path fill-rule="evenodd" clip-rule="evenodd" d="M21.7164 22.4397L1.39461 30.2854C0.77109 30.5261 0.462041 31.23 0.704332 31.8576L9.62472 54.963L25.8569 97.0073C26.0992 97.6349 26.8011 97.9485 27.4246 97.7078L46.6174 90.2979C47.2409 90.0572 47.55 89.3533 47.3077 88.7257L40.8683 72.0465C40.6072 71.3703 40.988 70.6207 41.6735 70.3999C42.1403 70.2495 42.6056 70.085 43.0689 69.9062L50.5955 67.0003C63.8973 61.8649 70.4903 46.8483 65.3215 33.46C60.1526 20.0716 45.1791 13.3814 31.8773 18.5168L21.7164 22.4397Z" fill="white"/>
<path fill-rule="evenodd" clip-rule="evenodd" d="M42.8778 40.232C43.6873 39.9195 44.5969 40.3224 44.9094 41.1319C45.1183 41.6729 45.3586 42.2117 45.6193 42.7954L45.6252 42.8086C45.8787 43.376 46.1515 43.9867 46.3946 44.6164C46.7071 45.4259 46.3043 46.3355 45.4948 46.648C44.6853 46.9605 43.7757 46.5577 43.4632 45.7482C43.2523 45.2018 43.0108 44.6602 42.7503 44.0769L42.7411 44.0565C42.4888 43.4916 42.2181 42.8857 41.978 42.2636C41.6655 41.4541 42.0683 40.5446 42.8778 40.232Z" fill="black"/>
<path fill-rule="evenodd" clip-rule="evenodd" d="M49.4032 37.221C50.2127 36.9085 51.1223 37.3113 51.4348 38.1208L52.7042 41.4089C53.0167 42.2183 52.6138 43.1279 51.8044 43.4404C50.9949 43.7529 50.0853 43.3501 49.7728 42.5406L48.5034 39.2526C48.1908 38.4431 48.5937 37.5335 49.4032 37.221Z" fill="black"/>
<path fill-rule="evenodd" clip-rule="evenodd" d="M53.4534 51.2249L53.1656 50.575C52.8058 49.7627 51.8557 49.3958 51.0434 49.7556C50.2311 50.1153 49.8642 51.0654 50.2239 51.8777L50.5118 52.5277C50.8715 53.34 51.8216 53.7069 52.6339 53.3471C53.4463 52.9874 53.8131 52.0372 53.4534 51.2249ZM49.951 47.289C47.7765 48.252 46.7944 50.7955 47.7574 52.9701L48.0452 53.62C49.0082 55.7946 51.5517 56.7767 53.7263 55.8137C55.9008 54.8506 56.883 52.3071 55.9199 50.1326L55.6321 49.4827C54.6691 47.3081 52.1256 46.326 49.951 47.289Z" fill="black"/>
<path fill-rule="evenodd" clip-rule="evenodd" d="M93.5636 58.0006C105.235 60.4171 116.655 52.9147 119.072 41.2435C121.488 29.5722 113.986 18.1519 102.315 15.7353C90.6434 13.3188 79.223 20.8212 76.8065 32.4924C76.5161 33.8949 76.3691 35.292 76.3547 36.6691C76.3414 37.9524 75.8242 39.256 74.774 40.1686L71.8422 42.7162C71.2331 43.2456 71.5756 44.2472 72.3813 44.2927L75.014 44.4414C76.7207 44.5378 78.132 45.5825 78.8676 46.9692C81.7771 52.4547 87.0136 56.6444 93.5636 58.0006ZM120.833 41.6081C118.215 54.2519 105.843 62.3796 93.199 59.7616C86.1024 58.2923 80.4286 53.7502 77.2788 47.8119C76.8047 46.9181 75.9228 46.294 74.9126 46.237L72.2799 46.0883C69.8627 45.9518 68.8352 42.9467 70.6626 41.3587L73.5944 38.8111C74.2167 38.2704 74.5479 37.4747 74.5564 36.6504C74.5719 35.1577 74.7314 33.6447 75.0454 32.1278C77.6633 19.484 90.0354 11.3564 102.679 13.9743C115.323 16.5922 123.451 28.9643 120.833 41.6081Z" fill="white"/>
<path fill-rule="evenodd" clip-rule="evenodd" d="M90.6723 27.6054C90.5713 28.0932 90.7475 28.5739 91.0934 28.8841L91.1214 28.9428L91.1266 28.9539C91.1492 29.0021 91.2234 29.1605 91.291 29.2666C91.4826 29.5674 91.6751 29.8727 91.8693 30.1805L91.8693 30.1805C92.5003 31.1812 93.1488 32.2097 93.8429 33.206C94.355 33.9412 94.8648 34.6911 95.379 35.4474L95.379 35.4474C95.6699 35.8754 95.9622 36.3053 96.2571 36.7358C95.2638 37.6664 94.3911 38.7049 93.5788 39.6716L93.5788 39.6717L93.431 39.8475C92.5514 40.8933 91.7309 41.8513 90.8032 42.67C90.2447 43.163 90.1916 44.0153 90.6845 44.5738C91.1775 45.1323 92.0298 45.1855 92.5883 44.6925C93.6867 43.7231 94.6263 42.6173 95.4955 41.5838L95.6136 41.4434L95.6136 41.4434C96.3615 40.5538 97.0608 39.7219 97.8216 38.9731C98.536 39.9667 99.2757 40.9489 100.056 41.9005L100.215 42.095L100.215 42.095C101.056 43.1199 101.843 44.0795 102.522 45.1122C102.931 45.7348 103.767 45.908 104.39 45.499C105.012 45.09 105.185 44.2537 104.776 43.6311C104.016 42.4738 103.143 41.4095 102.322 40.4091L102.142 40.1903C101.32 39.188 100.553 38.1599 99.8055 37.1109C101.857 35.1983 103.924 33.3224 106.102 31.7215C106.703 31.2804 106.832 30.4362 106.39 29.8359C105.949 29.2357 105.105 29.1067 104.505 29.5479C102.312 31.1599 100.232 33.0301 98.2511 34.8718C98.0574 34.5878 97.8634 34.3025 97.6687 34.0161C97.1411 33.24 96.6076 32.4554 96.0564 31.6641C95.401 30.7234 94.7981 29.7673 94.1743 28.7783L94.1743 28.7783C93.9842 28.4767 93.7921 28.1721 93.596 27.864L93.5952 27.8625C93.5882 27.8481 93.5759 27.8227 93.5568 27.7826L93.5537 27.7762C93.5153 27.6956 93.4578 27.5749 93.3981 27.4609L93.3964 27.4577C93.354 27.3768 93.2426 27.1641 93.0889 26.9875C93.0431 26.9349 92.9561 26.8411 92.8294 26.7505C92.7222 26.6738 92.4406 26.4929 92.0327 26.4898C91.5278 26.4859 91.1422 26.75 90.9253 27.0396C90.7491 27.2749 90.6926 27.5072 90.6723 27.6054ZM90.9783 28.6581C90.9783 28.658 90.9793 28.6596 90.9813 28.663L90.9783 28.6581Z" fill="#45BE59"/>
<path fill-rule="evenodd" clip-rule="evenodd" d="M92.5693 27.1163C92.4949 27.0631 92.3047 26.9416 92.0307 26.9395C91.6938 26.9369 91.4342 27.1122 91.2866 27.3093C91.1673 27.4686 91.1284 27.627 91.114 27.6967C91.0736 27.892 91.0996 28.0857 91.1772 28.2543C91.1831 28.2572 91.1882 28.2598 91.1924 28.2621C91.2439 28.2898 91.2777 28.3213 91.2864 28.3294C91.2999 28.3421 91.3102 28.3533 91.3154 28.3591C91.3321 28.3778 91.3438 28.3944 91.3451 28.3962C91.351 28.4045 91.3565 28.4129 91.3565 28.4129L91.3631 28.4233L91.3656 28.4275L91.3664 28.4287L91.3701 28.435L91.3149 28.4681C91.3398 28.4968 91.3665 28.524 91.395 28.5495L91.4618 28.6095L91.5297 28.7515L91.5349 28.7627C91.5459 28.7862 91.5679 28.8331 91.5945 28.8855C91.6221 28.9401 91.6498 28.9908 91.6717 29.0252C91.8632 29.3259 92.0555 29.6308 92.2488 29.9373L92.2511 29.9408C92.883 30.9429 93.526 31.9627 94.2133 32.9492C94.7268 33.6864 95.2378 34.438 95.7514 35.1935L95.7522 35.1948L95.7536 35.1968C96.0441 35.6242 96.3355 36.0528 96.6294 36.4818L96.8475 36.8002L96.5659 37.064C95.5971 37.9717 94.7425 38.9875 93.9289 39.9557L93.9249 39.9605L93.7767 40.1369C92.8988 41.1806 92.0584 42.1633 91.1022 43.0073C90.7299 43.3359 90.6944 43.9041 91.0231 44.2765C91.3517 44.6488 91.9199 44.6842 92.2923 44.3556C93.3622 43.4112 94.282 42.33 95.1529 41.2946L95.2757 41.1485L95.2785 41.1452C96.021 40.262 96.7317 39.4165 97.5077 38.6528L97.8818 38.2847L98.1881 38.7108C98.8987 39.6992 99.6325 40.6733 100.405 41.6155M100.405 41.6155L100.564 41.81L100.573 41.82C101.408 42.8378 102.207 43.8128 102.899 44.8655C103.172 45.2806 103.729 45.396 104.144 45.1233C104.559 44.8507 104.675 44.2932 104.402 43.8781C103.657 42.744 102.799 41.6977 101.975 40.6945L101.796 40.4756C100.966 39.4631 100.192 38.4262 99.4407 37.3718L99.2121 37.0508L99.5003 36.7821C101.552 34.869 103.636 32.9772 105.838 31.3594C106.238 31.0653 106.324 30.5025 106.03 30.1023C105.736 29.7022 105.173 29.6162 104.773 29.9103C102.601 31.506 100.538 33.3612 98.5587 35.2012L98.1758 35.5572L97.8812 35.1253C97.6877 34.8418 97.4942 34.557 97.3 34.2715L97.2984 34.2691C96.7705 33.4926 96.2385 32.7101 95.6889 31.9212C95.0277 30.9721 94.4201 30.0087 93.7983 29.0227L93.7963 29.0195L93.7955 29.0183C93.6053 28.7166 93.4136 28.4128 93.2181 28.1055L93.2044 28.0839L93.1924 28.0594C93.1852 28.0445 93.1722 28.0178 93.1523 27.9761L93.1492 27.9697C93.1105 27.8883 93.0565 27.775 93.0013 27.6697L92.9996 27.6665C92.9569 27.5849 92.8665 27.4153 92.7512 27.2828C92.7177 27.2443 92.6567 27.1788 92.5693 27.1163M90.5992 28.8975L91.0014 28.6562L91.4274 28.6173C91.4293 28.6376 91.4317 28.6774 91.424 28.7271C91.4232 28.7323 91.4223 28.7376 91.4212 28.743C91.4179 28.7603 91.4124 28.7831 91.4032 28.809L91.4023 28.8114C91.4004 28.8168 91.3983 28.8224 91.396 28.828C91.3745 28.8806 91.3374 28.9434 91.2736 28.9984C91.1572 29.099 91.023 29.1151 90.9314 29.1052C90.9207 29.104 90.9105 29.1025 90.9007 29.1008L90.9624 29.0319L90.9819 29.0102L91.1228 28.9429L90.9835 29.0084L91.0948 28.8843L90.754 29.047C90.7098 29.0213 90.681 28.9944 90.6731 28.987C90.6595 28.9743 90.6492 28.9631 90.644 28.9573C90.6274 28.9386 90.6156 28.922 90.6144 28.9203C90.6086 28.9121 90.6032 28.904 90.6032 28.904L90.5992 28.8975ZM90.7246 29.1527C90.3109 28.7396 90.1057 28.1314 90.2335 27.5144C90.2597 27.3876 90.3338 27.0815 90.5669 26.7702C90.8531 26.388 91.3647 26.0352 92.0376 26.0403C92.5794 26.0445 92.9523 26.2848 93.0924 26.3849C93.2584 26.5036 93.3714 26.6258 93.4295 26.6924C93.6181 26.9092 93.7493 27.1597 93.7937 27.2447L93.7961 27.2492L93.7977 27.2523M90.7246 29.1527C90.75 29.2068 90.8318 29.3804 90.9132 29.5083C91.1042 29.8081 91.2962 30.1125 91.4904 30.4205L91.4926 30.424C92.122 31.4221 92.7754 32.4584 93.4754 33.4632C93.9859 34.1959 94.4942 34.9436 95.0086 35.7003C95.2285 36.0238 95.4496 36.3491 95.6721 36.6749C94.7741 37.5521 93.9762 38.5017 93.2435 39.3737L93.2361 39.3825L93.0884 39.5582C92.2069 40.6063 91.4063 41.5395 90.5072 42.3331C89.7625 42.9903 89.6916 44.1268 90.3489 44.8715C91.0062 45.6162 92.1426 45.687 92.8873 45.0298C94.0141 44.0352 94.9735 42.9048 95.841 41.8734L95.9543 41.7386L95.9591 41.7329C96.5844 40.9892 97.1646 40.2994 97.7704 39.6671C98.392 40.5194 99.0353 41.3632 99.7095 42.1857L99.865 42.3753L99.8691 42.3803C100.713 43.4086 101.484 44.3498 102.147 45.3592C102.693 46.1894 103.808 46.4202 104.638 45.8749C105.468 45.3295 105.699 44.2145 105.154 43.3844C104.38 42.2072 103.494 41.1275 102.677 40.1321L102.491 39.9054C101.761 39.0151 101.073 38.1029 100.403 37.1707C102.357 35.3537 104.316 33.5935 106.37 32.084C107.17 31.4957 107.342 30.3701 106.754 29.5698C106.166 28.7695 105.04 28.5975 104.24 29.1857C102.167 30.7094 100.199 32.458 98.33 34.1869C98.2342 34.0463 98.1384 33.9053 98.0423 33.7639L98.0413 33.7625C97.5141 32.987 96.9795 32.2007 96.4267 31.4072C95.7783 30.4764 95.1807 29.5291 94.5561 28.5386C94.3706 28.2445 94.1823 27.9459 93.9906 27.6445C93.9839 27.6308 93.9752 27.6127 93.9641 27.5894M93.9641 27.5894L93.9611 27.583Z" fill="#45BE59"/>
</svg>
