<svg width="172" height="147" viewBox="0 0 122 107" fill="none" xmlns="http://www.w3.org/2000/svg">
<mask id="mask0_53_6491" style="mask-type:alpha" maskUnits="userSpaceOnUse" x="0" y="0" width="122" height="107">
<path d="M0 0H122V106.046H0V0Z" fill="#D9D9D9"/>
</mask>
<g mask="url(#mask0_53_6491)">
<path fill-rule="evenodd" clip-rule="evenodd" d="M21.7164 22.4399L1.39461 30.2856C0.77109 30.5263 0.462041 31.2302 0.704332 31.8578L9.62472 54.9632L25.8569 97.0075C26.0992 97.6351 26.8011 97.9487 27.4246 97.7079L46.6174 90.2981C47.2409 90.0574 47.55 89.3535 47.3077 88.7259L40.8683 72.0467C40.6072 71.3705 40.988 70.6209 41.6735 70.4001C42.1403 70.2497 42.6056 70.0852 43.0689 69.9063L50.5955 67.0005C63.8973 61.865 70.4903 46.8485 65.3215 33.4602C60.1526 20.0718 45.1791 13.3815 31.8773 18.517L21.7164 22.4399Z" fill="black"/>
<path fill-rule="evenodd" clip-rule="evenodd" d="M42.8778 40.2322C43.6873 39.9197 44.5969 40.3226 44.9094 41.1321C45.1183 41.6731 45.3586 42.2118 45.6193 42.7956L45.6252 42.8088C45.8787 43.3762 46.1515 43.9869 46.3946 44.6166C46.7071 45.4261 46.3043 46.3357 45.4948 46.6482C44.6853 46.9607 43.7757 46.5578 43.4632 45.7484C43.2523 45.202 43.0108 44.6603 42.7503 44.0771L42.7411 44.0566C42.4888 43.4918 42.2181 42.8859 41.978 42.2638C41.6655 41.4543 42.0683 40.5447 42.8778 40.2322Z" fill="white"/>
<path fill-rule="evenodd" clip-rule="evenodd" d="M49.4027 37.2212C50.2122 36.9087 51.1218 37.3116 51.4343 38.1211L52.7037 41.4091C53.0162 42.2186 52.6134 43.1281 51.8039 43.4407C50.9944 43.7532 50.0848 43.3503 49.7723 42.5408L48.5029 39.2528C48.1904 38.4433 48.5932 37.5338 49.4027 37.2212Z" fill="white"/>
<path fill-rule="evenodd" clip-rule="evenodd" d="M53.4529 51.2249L53.1651 50.575C52.8053 49.7627 51.8552 49.3958 51.0429 49.7556C50.2306 50.1153 49.8637 51.0654 50.2234 51.8777L50.5113 52.5277C50.871 53.34 51.8211 53.7069 52.6335 53.3471C53.4458 52.9874 53.8126 52.0372 53.4529 51.2249ZM49.9505 47.289C47.776 48.252 46.7939 50.7955 47.7569 52.9701L48.0447 53.62C49.0077 55.7946 51.5512 56.7767 53.7258 55.8137C55.9003 54.8506 56.8825 52.3071 55.9195 50.1326L55.6316 49.4827C54.6686 47.3081 52.1251 46.326 49.9505 47.289Z" fill="white"/>
<path fill-rule="evenodd" clip-rule="evenodd" d="M93.5626 58.0006C105.234 60.4171 116.654 52.9147 119.071 41.2435C121.487 29.5722 113.985 18.1519 102.314 15.7353C90.6424 13.3188 79.222 20.8212 76.8055 32.4924C76.5151 33.8949 76.3681 35.292 76.3538 36.6691C76.3404 37.9524 75.8233 39.256 74.7731 40.1686L71.8412 42.7162C71.2321 43.2456 71.5746 44.2472 72.3803 44.2927L75.0131 44.4414C76.7198 44.5378 78.131 45.5825 78.8666 46.9692C81.7761 52.4547 87.0126 56.6444 93.5626 58.0006ZM120.832 41.6081C118.214 54.2519 105.842 62.3796 93.198 59.7616C86.1015 58.2923 80.4276 53.7502 77.2778 47.8119C76.8037 46.9181 75.9219 46.294 74.9116 46.237L72.2789 46.0883C69.8618 45.9518 68.8342 42.9467 70.6616 41.3587L73.5934 38.8111C74.2157 38.2704 74.5469 37.4747 74.5555 36.6504C74.571 35.1577 74.7304 33.6447 75.0445 32.1278C77.6624 19.484 90.0344 11.3564 102.678 13.9743C115.322 16.5922 123.45 28.9643 120.832 41.6081Z" fill="black"/>
<path fill-rule="evenodd" clip-rule="evenodd" d="M90.6732 27.6054C90.5723 28.0931 90.7484 28.5739 91.0944 28.8841L91.1224 28.9427L91.1276 28.9538C91.1502 29.002 91.2244 29.1604 91.292 29.2665C91.4836 29.5674 91.6761 29.8726 91.8702 30.1805L91.8702 30.1805C92.5013 31.1812 93.1498 32.2097 93.8439 33.206C94.356 33.9411 94.8658 34.691 95.3799 35.4473L95.38 35.4474C95.6709 35.8753 95.9632 36.3052 96.258 36.7357C95.2647 37.6663 94.3921 38.7049 93.5798 39.6716L93.5798 39.6716L93.432 39.8474C92.5524 40.8933 91.7319 41.8512 90.8042 42.67C90.2457 43.1629 90.1926 44.0153 90.6855 44.5738C91.1785 45.1323 92.0308 45.1854 92.5893 44.6925C93.6877 43.723 94.6273 42.6172 95.4965 41.5838L95.6145 41.4434L95.6146 41.4434C96.3625 40.5537 97.0618 39.7219 97.8226 38.9731C98.537 39.9667 99.2767 40.9488 100.057 41.9004L100.216 42.095L100.216 42.095C101.057 43.1199 101.844 44.0794 102.523 45.1122C102.932 45.7348 103.768 45.9079 104.391 45.4989C105.013 45.0899 105.186 44.2536 104.777 43.631C104.017 42.4738 103.144 41.4095 102.323 40.4091L102.143 40.1902C101.321 39.1879 100.554 38.1599 99.8064 37.1108C101.858 35.1982 103.925 33.3223 106.103 31.7215C106.704 31.2803 106.833 30.4361 106.391 29.8359C105.95 29.2356 105.106 29.1067 104.506 29.5478C102.313 31.1598 100.233 33.03 98.2521 34.8717C98.0584 34.5877 97.8644 34.3025 97.6697 34.0161C97.142 33.2399 96.6086 32.4554 96.0573 31.664C95.402 30.7233 94.7991 29.7673 94.1753 28.7782L94.1753 28.7782C93.9851 28.4767 93.793 28.1721 93.5969 27.8639L93.5962 27.8624C93.5892 27.848 93.5768 27.8226 93.5577 27.7825L93.5547 27.7761C93.5163 27.6956 93.4588 27.5748 93.399 27.4608L93.3974 27.4576C93.355 27.3767 93.2436 27.1641 93.0898 26.9874C93.0441 26.9348 92.9571 26.841 92.8304 26.7504C92.7231 26.6737 92.4416 26.4928 92.0337 26.4897C91.5288 26.4859 91.1432 26.7499 90.9263 27.0395C90.7501 27.2748 90.6936 27.5071 90.6732 27.6054ZM90.9792 28.658C90.9792 28.6579 90.9802 28.6595 90.9823 28.6629L90.9792 28.658Z" fill="#45BE59"/>
<path fill-rule="evenodd" clip-rule="evenodd" d="M92.5688 27.1163C92.4944 27.0631 92.3042 26.9416 92.0303 26.9395C91.6933 26.9369 91.4337 27.1122 91.2861 27.3093C91.1668 27.4686 91.1279 27.627 91.1135 27.6967C91.0731 27.892 91.0991 28.0857 91.1767 28.2543C91.1826 28.2572 91.1877 28.2598 91.1919 28.2621C91.2434 28.2898 91.2772 28.3213 91.2859 28.3294C91.2995 28.3421 91.3097 28.3533 91.3149 28.3591C91.3316 28.3778 91.3433 28.3944 91.3446 28.3962C91.3505 28.4045 91.356 28.4129 91.356 28.4129L91.3626 28.4233L91.3651 28.4275L91.3659 28.4287L91.3696 28.435L91.3145 28.4681C91.3393 28.4968 91.366 28.524 91.3945 28.5495L91.4614 28.6095L91.5292 28.7515L91.5344 28.7627C91.5454 28.7862 91.5674 28.8331 91.594 28.8855C91.6216 28.9401 91.6493 28.9908 91.6712 29.0252C91.8627 29.3259 92.055 29.6308 92.2483 29.9373L92.2506 29.9408C92.8825 30.9429 93.5256 31.9627 94.2128 32.9492C94.7263 33.6864 95.2373 34.438 95.7509 35.1935L95.7517 35.1948L95.7531 35.1968C96.0437 35.6242 96.335 36.0528 96.6289 36.4818L96.847 36.8002L96.5654 37.064C95.5966 37.9717 94.742 38.9875 93.9285 39.9557L93.9244 39.9605L93.7762 40.1369C92.8984 41.1806 92.0579 42.1633 91.1017 43.0073C90.7294 43.3359 90.6939 43.9041 91.0226 44.2765C91.3512 44.6488 91.9194 44.6842 92.2918 44.3556C93.3617 43.4112 94.2816 42.33 95.1524 41.2946L95.2752 41.1485L95.278 41.1452C96.0205 40.262 96.7312 39.4165 97.5072 38.6528L97.8813 38.2847L98.1876 38.7108C98.8982 39.6991 99.632 40.6733 100.404 41.6155M100.404 41.6155L100.564 41.81L100.572 41.82C101.407 42.8378 102.207 43.8128 102.899 44.8655C103.171 45.2806 103.729 45.396 104.144 45.1233C104.559 44.8507 104.674 44.2932 104.402 43.8781C103.657 42.744 102.798 41.6977 101.975 40.6945L101.795 40.4756C100.965 39.4631 100.191 38.4262 99.4402 37.3718L99.2116 37.0508L99.4998 36.7821C101.552 34.869 103.636 32.9772 105.837 31.3594C106.237 31.0653 106.323 30.5025 106.029 30.1023C105.735 29.7022 105.172 29.6162 104.772 29.9103C102.601 31.506 100.537 33.3612 98.5582 35.2012L98.1753 35.5572L97.8807 35.1253C97.6873 34.8418 97.4937 34.557 97.2996 34.2715L97.2979 34.2691C96.77 33.4926 96.238 32.7101 95.6884 31.9212C95.0272 30.9721 94.4197 30.0087 93.7978 29.0227L93.7958 29.0195L93.795 29.0183C93.6048 28.7166 93.4131 28.4128 93.2176 28.1055L93.2039 28.0839L93.1919 28.0594C93.1847 28.0445 93.1717 28.0178 93.1518 27.9761L93.1488 27.9697C93.11 27.8883 93.056 27.775 93.0008 27.6697L92.9991 27.6665C92.9564 27.5849 92.866 27.4153 92.7507 27.2828C92.7172 27.2443 92.6562 27.1788 92.5688 27.1163M90.5987 28.8975L91.0009 28.6562L91.427 28.6173C91.4288 28.6376 91.4312 28.6774 91.4235 28.7271C91.4227 28.7323 91.4218 28.7376 91.4207 28.743C91.4174 28.7603 91.412 28.7831 91.4027 28.809L91.4018 28.8114C91.3999 28.8168 91.3978 28.8224 91.3955 28.828C91.374 28.8806 91.3369 28.9434 91.2731 28.9984C91.1567 29.099 91.0225 29.1151 90.9309 29.1052C90.9202 29.104 90.91 29.1025 90.9002 29.1008L90.9619 29.0319L90.9814 29.0102L91.1223 28.9429L90.983 29.0084L91.0943 28.8843L90.7535 29.047C90.7093 29.0213 90.6805 28.9944 90.6726 28.987C90.659 28.9743 90.6487 28.9631 90.6436 28.9573C90.6269 28.9386 90.6152 28.922 90.6139 28.9203C90.6081 28.9121 90.6027 28.904 90.6027 28.904L90.5987 28.8975ZM90.7242 29.1527C90.3104 28.7396 90.1052 28.1314 90.233 27.5144C90.2592 27.3876 90.3333 27.0815 90.5664 26.7702C90.8527 26.388 91.3642 26.0352 92.0371 26.0403C92.5789 26.0445 92.9519 26.2848 93.0919 26.3849C93.2579 26.5036 93.3709 26.6258 93.429 26.6924C93.6176 26.9092 93.7488 27.1597 93.7933 27.2447L93.7956 27.2492L93.7973 27.2523M90.7242 29.1527C90.7495 29.2068 90.8313 29.3804 90.9128 29.5083C91.1037 29.8081 91.2957 30.1125 91.4899 30.4205L91.4921 30.424C92.1215 31.4221 92.775 32.4584 93.4749 33.4632C93.9854 34.1959 94.4937 34.9436 95.0081 35.7003C95.228 36.0238 95.4491 36.3491 95.6716 36.6749C94.7736 37.5521 93.9757 38.5017 93.243 39.3737L93.2356 39.3825L93.0879 39.5582C92.2064 40.6063 91.4058 41.5395 90.5067 42.3331C89.762 42.9903 89.6912 44.1268 90.3484 44.8715C91.0057 45.6162 92.1421 45.687 92.8868 45.0298C94.0136 44.0352 94.973 42.9048 95.8405 41.8734L95.9539 41.7386L95.9586 41.7329C96.5839 40.9892 97.1641 40.2994 97.7699 39.6671C98.3915 40.5194 99.0348 41.3632 99.709 42.1857L99.8645 42.3753L99.8687 42.3803C100.712 43.4086 101.484 44.3498 102.147 45.3592C102.692 46.1894 103.807 46.4202 104.637 45.8749C105.468 45.3295 105.698 44.2145 105.153 43.3844C104.38 42.2072 103.494 41.1275 102.677 40.1321L102.491 39.9054C101.761 39.0151 101.073 38.1029 100.402 37.1707C102.357 35.3537 104.316 33.5935 106.37 32.084C107.17 31.4957 107.342 30.3701 106.754 29.5698C106.165 28.7695 105.04 28.5975 104.24 29.1857C102.166 30.7094 100.199 32.458 98.3295 34.1869C98.2338 34.0463 98.1379 33.9053 98.0418 33.7639L98.0408 33.7625C97.5136 32.987 96.979 32.2007 96.4262 31.4072C95.7778 30.4764 95.1802 29.5291 94.5556 28.5386C94.3701 28.2445 94.1818 27.9459 93.9901 27.6445C93.9834 27.6308 93.9747 27.6127 93.9636 27.5894M93.9636 27.5894L93.9606 27.583L93.9636 27.5894Z" fill="#45BE59"/>
</g>
<path fill-rule="evenodd" clip-rule="evenodd" d="M93.0716 27.1313C93.1304 27.0804 93.2193 27.0868 93.2702 27.1456C93.3139 27.1961 93.3723 27.2735 93.4336 27.3574C93.4375 27.3511 93.4423 27.3445 93.4482 27.3379C93.4478 27.3323 93.4476 27.3258 93.4474 27.3192C93.4473 27.3117 93.4469 27.2932 93.4501 27.2743C93.4511 27.2688 93.4528 27.2601 93.4562 27.2501C93.459 27.2416 93.4662 27.2223 93.4826 27.2027C93.501 27.1807 93.5376 27.1517 93.5915 27.1516C93.6036 27.1515 93.6147 27.153 93.6247 27.1554C93.6517 27.15 93.6732 27.1534 93.6792 27.1543C93.6794 27.1544 93.6796 27.1544 93.6797 27.1544C93.6975 27.1572 93.7125 27.1624 93.7225 27.1665C93.743 27.1747 93.7644 27.1868 93.7829 27.2011C93.7921 27.2083 93.8046 27.2191 93.8163 27.2337C93.8257 27.2454 93.8479 27.276 93.8509 27.321C93.8518 27.3345 93.8523 27.3482 93.8525 27.3621C93.8981 27.439 93.9374 27.5201 93.9732 27.5978C93.9866 27.6266 93.9992 27.6546 94.0116 27.6818C94.0384 27.7409 94.0636 27.7967 94.0908 27.8511C94.1256 27.9206 94.0974 28.0051 94.0279 28.0399C93.9583 28.0747 93.8738 28.0465 93.839 27.977C93.8298 27.9586 93.8207 27.9399 93.8117 27.9209C93.8101 27.9322 93.8069 27.9449 93.8012 27.958C93.791 27.9815 93.771 28.0098 93.7362 28.028C93.7025 28.0456 93.6701 28.0458 93.649 28.0428C93.6134 28.0376 93.589 28.0202 93.5828 28.0158L93.5826 28.0157C93.5652 28.0033 93.551 27.9881 93.5432 27.9795C93.5087 27.9416 93.4548 27.8685 93.3992 27.7916C93.3736 27.7562 93.347 27.719 93.3201 27.6815C93.2219 27.5445 93.1204 27.4028 93.0573 27.3298C93.0064 27.271 93.0128 27.1821 93.0716 27.1313Z" fill="#45BE59"/>
<path fill-rule="evenodd" clip-rule="evenodd" d="M91.1956 28.2384C91.2711 28.2572 91.3169 28.3337 91.2981 28.4091C91.2527 28.5907 91.3168 28.8038 91.4172 29.0045C91.4172 29.0045 91.4174 29.0048 91.4178 29.0055C91.4205 29.0104 91.4325 29.0317 91.4479 29.0589L91.4694 29.0968L91.4767 29.1098L91.4795 29.1149L91.4817 29.1192L91.4817 29.1193C91.4821 29.12 91.4835 29.1228 91.4851 29.1264C91.4855 29.1275 91.488 29.1331 91.4904 29.1406L91.4904 29.1407C91.4913 29.1434 91.4947 29.1542 91.4961 29.1685C91.4968 29.1769 91.4959 29.1995 91.4935 29.2134C91.486 29.237 91.4502 29.2876 91.4191 29.3088C91.3802 29.3282 91.3444 29.3246 91.3262 29.3208C91.3075 29.3169 91.2936 29.3102 91.2864 29.3063C91.2719 29.2986 91.2612 29.2898 91.2563 29.2857C91.2452 29.2763 91.2349 29.2656 91.2275 29.2575C91.2242 29.254 91.2208 29.2502 91.2174 29.2463C91.199 29.2554 91.1791 29.2603 91.1593 29.2609C91.139 29.2616 91.122 29.2578 91.1096 29.2537C91.0948 29.2681 91.0748 29.2813 91.0493 29.2885C91.0153 29.2982 90.9855 29.2932 90.9659 29.2867C90.9329 29.2757 90.9131 29.2555 90.9083 29.2506L90.9082 29.2505C90.8952 29.2373 90.8866 29.2235 90.8839 29.219L90.8838 29.2189C90.8764 29.207 90.8679 29.1907 90.8594 29.1735C90.8317 29.1742 90.8086 29.1667 90.7923 29.1585C90.7607 29.1427 90.744 29.1194 90.7398 29.1136L90.7398 29.1136C90.7316 29.1021 90.7261 29.0909 90.7231 29.084C90.7165 29.078 90.7114 29.0725 90.7079 29.0686C90.6836 29.0414 90.6577 28.9975 90.649 28.9828C90.6479 28.9809 90.647 28.9794 90.6465 28.9786C90.6324 28.9557 90.6079 28.9197 90.5813 28.8806C90.5665 28.8589 90.551 28.8362 90.5364 28.8143C90.5189 28.7881 90.4987 28.7575 90.4878 28.7367L90.4877 28.7366C90.4855 28.7323 90.4787 28.7193 90.474 28.7032C90.474 28.703 90.474 28.7029 90.4739 28.7027C90.4723 28.6973 90.4644 28.6703 90.4706 28.6367C90.4744 28.6162 90.4853 28.5833 90.5163 28.5561C90.5324 28.5419 90.5496 28.533 90.5659 28.5277C90.5645 28.5157 90.5623 28.4844 90.5786 28.4499C90.5893 28.4274 90.6075 28.4045 90.6349 28.3884C90.6477 28.3809 90.6604 28.3761 90.6723 28.3732C90.6724 28.3713 90.6725 28.3694 90.6727 28.3673C90.6731 28.3638 90.6739 28.3561 90.6762 28.3468C90.6762 28.3467 90.6762 28.3466 90.6762 28.3464C90.6772 28.3422 90.6842 28.3109 90.7105 28.2828C90.728 28.2641 90.7606 28.2403 90.8074 28.2383C90.8518 28.2364 90.8837 28.2553 90.8995 28.2675C90.9254 28.2874 90.9373 28.3115 90.9393 28.3155C90.9394 28.3156 90.9395 28.3158 90.9395 28.3159C90.9459 28.3284 90.9492 28.3397 90.9499 28.3423C90.9499 28.3424 90.9499 28.3424 90.95 28.3425C90.9534 28.3541 90.9564 28.3698 90.9581 28.3784C90.9582 28.3789 90.9583 28.3793 90.9584 28.3798C90.959 28.3828 90.9595 28.3858 90.9601 28.3887C90.9618 28.3975 90.9634 28.4058 90.9651 28.4139C90.9659 28.4175 90.9665 28.4204 90.967 28.4227C90.9695 28.4281 90.9724 28.4339 90.9756 28.4401C90.9848 28.4577 90.9937 28.4729 91.0029 28.4883C91.0056 28.4392 91.0127 28.3899 91.0249 28.3408C91.0438 28.2654 91.1202 28.2195 91.1956 28.2384Z" fill="#45BE59"/>
</svg>
