<svg width="79" height="29" viewBox="0 0 79 29" fill="none" xmlns="http://www.w3.org/2000/svg">
<path d="M54.0806 14.5C54.0806 22.5081 47.5887 29 39.5806 29C31.5724 29 25.0806 22.5081 25.0806 14.5C25.0806 6.49187 31.5724 0 39.5806 0C47.5887 0 54.0806 6.49187 54.0806 14.5Z" fill="black"/>
<path fill-rule="evenodd" clip-rule="evenodd" d="M64.2406 0.488764C64.2406 0.218827 64.0197 0 63.7471 0H55.3578C55.0852 0 54.8643 0.218827 54.8643 0.488764V19.7135V28.5112C54.8643 28.7812 55.0852 29 55.3578 29H64.2406H67.6951C67.9676 29 68.1886 28.7812 68.1886 28.5112V20.2022C68.1886 19.9323 67.9676 19.7135 67.6951 19.7135H64.7341C64.4616 19.7135 64.2406 19.4947 64.2406 19.2247V0.488764Z" fill="black"/>
<path d="M77.8844 19.5947C78.1578 19.5947 78.3794 19.8164 78.3794 20.0897L78.3794 28.5051C78.3794 28.7785 78.1578 29.0001 77.8844 29.0001L69.469 29.0001C69.1956 29.0001 68.974 28.7785 68.974 28.5051L68.974 20.0897C68.974 19.8164 69.1956 19.5947 69.469 19.5947L77.8844 19.5947Z" fill="#6BF65F"/>
<path fill-rule="evenodd" clip-rule="evenodd" d="M9.35774 0H0.492513C0.220506 0 0 0.218827 0 0.488764V10.427V28.5112C0 28.7812 0.220505 29 0.492513 29H8.86523C9.13724 29 9.35774 28.7812 9.35774 28.5112V21.3371C9.35774 21.0462 9.61219 20.8207 9.90481 20.8371C10.1041 20.8483 10.3048 20.8539 10.5069 20.8539H13.7904C19.5932 20.8539 24.2973 16.1856 24.2973 10.427C24.2973 4.66831 19.5932 0 13.7904 0H9.35774Z" fill="black"/>
</svg>
