<svg width="160" height="44" viewBox="0 0 160 44" fill="none" xmlns="http://www.w3.org/2000/svg">
<rect width="160" height="44" rx="15" fill="#EBEBEB"/>
<path d="M54.4259 15.4309H55.4093V29.2376H54.4259V15.4309ZM48.1331 16.5304C50.1607 16.5414 51.6137 18.3978 51.6137 21.2983C51.6137 24.2044 50.1607 26.0608 48.1331 26.0608C46.0889 26.0608 44.6524 24.2044 44.6524 21.2983C44.6524 18.3978 46.0889 16.5414 48.1331 16.5304ZM48.1331 17.4033C46.6469 17.4144 45.6027 18.9945 45.6027 21.2983C45.6027 23.6022 46.6469 25.1934 48.1331 25.1934C49.6193 25.1934 50.6524 23.6022 50.6579 21.2983C50.6524 18.9945 49.6193 17.4144 48.1331 17.4033ZM68.254 15.4309H69.2374V29.2376H68.254V15.4309ZM58.7623 16.8287H65.0441V25.6906H58.7623V16.8287ZM64.0883 17.6298H59.7347V24.8674H64.0883V17.6298ZM82.0821 29.221V15.4309H83.0656V29.221H82.0821ZM76.5573 17.7127V19.8287C76.5573 22.1934 78.4413 24.5691 80.3805 25.4199L79.8169 26.2044C78.2258 25.4586 76.7175 23.8122 76.0766 21.8453C75.4357 23.9116 73.9274 25.7403 72.386 26.5414L71.7948 25.7569C73.6622 24.8398 75.5628 22.221 75.5739 19.8287V17.7127H72.2092V16.8729H79.9606V17.7127H76.5573ZM100.194 19.1768H102.327V20.0331H100.194V23.7956H99.2052V15.4309H100.194V19.1768ZM93.5035 19.5249C92.9344 21.221 91.6195 22.5193 89.9842 23.1602L89.4703 22.3591C91.4759 21.6188 92.9897 19.7956 92.9952 17.6188V16.1271H93.9565V17.674C93.9455 19.6133 95.5145 21.3757 97.4703 22.0663L96.94 22.8508C95.3875 22.2707 94.0947 21.0497 93.5035 19.5249ZM99.2052 25.337H91.2494V24.5083H100.194V29.221H99.2052V25.337ZM114.077 29.221V15.4309H115.028V29.221H114.077ZM108.818 20.4751H111.31V15.7956H112.243V28.4696H111.31V21.2983H108.818V20.4751ZM107.238 17.9558V19.4254C107.232 21.8564 108.42 24.2597 110.287 25.3315L109.68 26.0718C108.287 25.232 107.254 23.663 106.774 21.8232C106.287 23.8122 105.21 25.5083 103.796 26.3978L103.16 25.6519C105.044 24.5359 106.282 22.0055 106.282 19.4254V17.9558H103.492V17.1271H109.901V17.9558H107.238Z" fill="black"/>
</svg>
