<svg width="160" height="44" viewBox="0 0 160 44" fill="none" xmlns="http://www.w3.org/2000/svg">
<rect width="160" height="44" rx="15" fill="#EBEBEB"/>
<path d="M61.6217 21.0497H64.0085V21.895H61.6217V29.221H60.6328V15.4309H61.6217V21.0497ZM57.3289 17.8232V24.674C58.1355 24.6243 58.9311 24.5525 59.688 24.4586L59.7433 25.2044C56.7985 25.663 53.4449 25.7017 50.9808 25.7127L50.8427 24.8398C51.4504 24.8398 52.1134 24.8398 52.804 24.8343V17.8232H51.1797V16.9945H58.9532V17.8232H57.3289ZM56.3786 17.8232H53.7654V24.8177C54.6162 24.8011 55.4946 24.7735 56.3786 24.7293V17.8232ZM75.1902 15.4309H76.1791V22.5635H75.1902V15.4309ZM68.7427 22.0055C66.6764 22.011 65.1957 20.7901 65.1957 19C65.1957 17.2155 66.6764 15.9779 68.7427 15.9724C70.7924 15.9779 72.2675 17.2155 72.2786 19C72.2675 20.7901 70.7924 22.011 68.7427 22.0055ZM66.1681 19C66.157 20.2707 67.2565 21.1934 68.7427 21.1878C70.2233 21.1934 71.3228 20.2707 71.3228 19C71.3228 17.7403 70.2233 16.8066 68.7427 16.8122C67.2565 16.8066 66.157 17.7403 66.1681 19ZM68.2951 26.4475V28.2044H76.704V29.0221H67.3393V25.6851H75.2012V24.0829H67.2951V23.2652H76.1791V26.4475H68.2951ZM93.9099 25.8122H92.9209V19.6409H89.6944V18.7956H92.9209V15.4475H93.9099V25.8122ZM86.6502 19.9558C86.0756 21.6851 84.7441 23.0608 83.1198 23.7293L82.6005 22.9227C84.5839 22.1657 86.153 20.2155 86.164 18.0497V16.2707H87.1198V18.105C87.1143 20.0718 88.6557 21.9061 90.6115 22.6243L90.0535 23.4033C88.5231 22.779 87.2303 21.5249 86.6502 19.9558ZM86.0701 24.5967V28.0552H94.2414V28.8895H85.0811V24.5967H86.0701ZM107.097 19.1105V15.4475H108.031V23.779H107.097V19.9337H104.915V23.6851H103.987V15.7127H104.915V19.1105H107.097ZM102.981 21.7514L103.097 22.5801C101.467 22.9171 100.169 22.989 97.8761 22.989H97.0308V16.4696H102.351V17.3039H97.9811V19.2265H102.191V20.0276H97.9811V22.1436C100.163 22.1436 101.451 22.0663 102.981 21.7514ZM107.069 25.3646H98.8153V24.5359H108.031V29.221H107.069V25.3646Z" fill="black"/>
</svg>
