<svg width="39" height="41" viewBox="0 0 39 41" fill="none" xmlns="http://www.w3.org/2000/svg">
<path fill-rule="evenodd" clip-rule="evenodd" d="M1.36047 20C2.11183 20 2.72093 20.6132 2.72093 21.3696V35.9783C2.72093 37.2389 3.7361 38.2609 4.98837 38.2609H34.0116C35.2639 38.2609 36.2791 37.2389 36.2791 35.9783V21.3696C36.2791 20.6132 36.8882 20 37.6395 20C38.3909 20 39 20.6132 39 21.3696V35.9783C39 38.7517 36.7666 41 34.0116 41H4.98837C2.23337 41 0 38.7517 0 35.9783V21.3696C0 20.6132 0.609101 20 1.36047 20Z" fill="#A8A8A8"/>
<path fill-rule="evenodd" clip-rule="evenodd" d="M9.39774 9.1294L18.0398 0.40168C18.5701 -0.133892 19.4299 -0.133892 19.9602 0.40168L28.6023 9.1294C29.1326 9.66498 29.1326 10.5333 28.6023 11.0689C28.0719 11.6045 27.2121 11.6045 26.6818 11.0689L20.358 4.68235L20.358 30.6286C20.358 31.386 19.75 32 19 32C18.25 32 17.642 31.386 17.642 30.6286L17.642 4.68235L11.3182 11.0689C10.7879 11.6045 9.92806 11.6045 9.39774 11.0689C8.86742 10.5333 8.86742 9.66498 9.39774 9.1294Z" fill="#A8A8A8"/>
</svg>
