<svg width="57" height="69" viewBox="0 0 57 69" fill="none" xmlns="http://www.w3.org/2000/svg">
<path fill-rule="evenodd" clip-rule="evenodd" d="M21.9527 0H1.15541C0.517293 0 0 0.517474 0 1.15581V24.6573V67.4223C0 68.0607 0.517292 68.5781 1.1554 68.5781H20.7973C21.4354 68.5781 21.9527 68.0607 21.9527 67.4223V50.4572C21.9527 49.7694 22.5496 49.236 23.2361 49.2748C23.7036 49.3012 24.1746 49.3146 24.6486 49.3146H32.3514C45.9644 49.3146 57 38.2752 57 24.6573C57 11.0395 45.9644 0 32.3514 0H21.9527Z" fill="#747474"/>
<path d="M38.2613 20.6098C37.8731 20.9948 37.2476 20.9967 36.8571 20.614L32.7602 16.5984C32.3618 16.2079 32.3599 15.567 32.756 15.1742L33.856 14.0832C34.3544 13.5889 34.9667 13.3418 35.693 13.3418C36.4194 13.3418 37.0313 13.5889 37.5288 14.0832L39.3489 15.8884C39.8473 16.3827 40.1073 16.9793 40.129 17.6782C40.1506 18.3771 39.9123 18.9732 39.4139 19.4667L38.2613 20.6098ZM34.9603 22.496C35.3547 22.8872 35.3547 23.5249 34.9602 23.9161L22.1874 36.5842C22.0001 36.7699 21.747 36.8742 21.4833 36.8742H17.3696C16.8173 36.8742 16.3696 36.4264 16.3696 35.8742V31.8106C16.3696 31.544 16.4761 31.2884 16.6654 31.1006L29.4465 18.4243C29.8364 18.0377 30.465 18.0377 30.8549 18.4243L34.9603 22.496Z" fill="#6BF65F"/>
</svg>
