<svg width="69" height="69" viewBox="0 0 69 69" fill="none" xmlns="http://www.w3.org/2000/svg">
<circle cx="34.5" cy="34.5" r="34.5" fill="#747474"/>
<path fill-rule="evenodd" clip-rule="evenodd" d="M19 34.5C19 25.3777 26.4705 18 35.6643 18C36.0306 18 36.3943 18.0117 36.755 18.0348C37.3057 18.0701 37.8495 18.1319 38.3849 18.219C39.5445 18.4077 40.1919 19.3059 40.3594 20.1534C40.5192 20.9627 40.2977 21.8908 39.6321 22.5596C39.4166 22.776 39.2164 23.0105 39.0322 23.2619C37.2251 25.7284 36.9588 29.8807 39.0635 33.7934C40.8342 37.085 43.7162 39.128 46.4412 39.6036C46.7821 39.6631 47.1197 39.698 47.4519 39.7085C48.3546 39.7371 49.1354 40.2181 49.583 40.8896C50.0499 41.5903 50.2137 42.6254 49.603 43.5461C49.2991 44.0044 48.9728 44.4467 48.6257 44.8715C45.5718 48.6088 40.8983 51 35.6643 51C26.4705 51 19 43.6223 19 34.5ZM35.6643 21.1935C28.2223 21.1935 22.2068 27.1606 22.2068 34.5C22.2068 41.8394 28.2223 47.8065 35.6643 47.8065C39.897 47.8065 43.6701 45.8764 46.1383 42.8558C46.1543 42.8363 46.1702 42.8166 46.1861 42.797C46.0865 42.7825 45.9871 42.7665 45.8877 42.7492C42.0589 42.0811 38.4044 39.331 36.2368 35.3014C33.6857 30.559 33.7533 25.0487 36.4417 21.3796C36.4804 21.3268 36.5196 21.2744 36.5593 21.2224C36.5559 21.2222 36.5525 21.222 36.5492 21.2218C36.2569 21.2031 35.9618 21.1935 35.6643 21.1935Z" fill="#6BF65F" stroke="#6BF65F"/>
</svg>
