<svg width="25" height="16" viewBox="0 0 25 16" fill="none" xmlns="http://www.w3.org/2000/svg">
<path fill-rule="evenodd" clip-rule="evenodd" d="M12.5 13.464C6.3626 13.464 3.00131 9.85968 1.63055 7.92284C1.5685 7.83516 1.54817 7.74702 1.55469 7.66035C1.5615 7.56978 1.6003 7.45901 1.69568 7.35217C3.5525 5.27214 7.60718 1.55354 12.5 1.55354C17.3928 1.55354 21.4475 5.27214 23.3043 7.35217C23.3997 7.45901 23.4385 7.56978 23.4453 7.66035C23.4518 7.74702 23.4315 7.83516 23.3695 7.92284C21.9987 9.85968 18.6374 13.464 12.5 13.464ZM0.536739 6.31759C-0.0973817 7.02793 -0.187623 8.04306 0.362458 8.8203C1.88566 10.9725 5.6585 15.0176 12.5 15.0176C19.3415 15.0176 23.1143 10.9725 24.6375 8.8203C25.1876 8.04306 25.0974 7.02793 24.4633 6.31759C22.5728 4.19986 18.1157 0 12.5 0C6.88432 0 2.42722 4.19986 0.536739 6.31759ZM16.1248 7.76773C16.1248 9.76972 14.5019 11.3927 12.4999 11.3927C10.4979 11.3927 8.87494 9.76972 8.87494 7.76773C8.87494 5.76573 10.4979 4.1428 12.4999 4.1428C14.5019 4.1428 16.1248 5.76573 16.1248 7.76773ZM17.6783 7.76773C17.6783 10.6277 15.3599 12.9462 12.4999 12.9462C9.63988 12.9462 7.32139 10.6277 7.32139 7.76773C7.32139 4.90774 9.63988 2.58925 12.4999 2.58925C15.3599 2.58925 17.6783 4.90774 17.6783 7.76773Z" fill="#BABABA"/>
</svg>
