<svg width="119" height="98" viewBox="0 0 119 98" fill="none" xmlns="http://www.w3.org/2000/svg">
<path fill-rule="evenodd" clip-rule="evenodd" d="M31.1719 0H1.64062C0.734533 0 0 0.739485 0 1.65169V35.236V96.3483C0 97.2605 0.734532 98 1.64062 98H29.5313C30.4373 98 31.1719 97.2605 31.1719 96.3483V72.1047C31.1719 71.1218 32.0195 70.3596 32.9942 70.415C33.658 70.4528 34.3268 70.4719 35 70.4719H45.9375C65.2675 70.4719 80.9375 54.6962 80.9375 35.236C80.9375 15.7757 65.2675 0 45.9375 0H31.1719Z" fill="black"/>
<path fill-rule="evenodd" clip-rule="evenodd" d="M49.3522 32.8115C50.5121 32.8115 51.4525 33.7888 51.4525 34.9943C51.4525 35.8 51.4928 36.6186 51.5369 37.5056L51.5379 37.5256C51.5808 38.3879 51.627 39.316 51.627 40.2537C51.627 41.4593 50.6866 42.4365 49.5267 42.4365C48.3668 42.4365 47.4265 41.4593 47.4265 40.2537C47.4265 39.4401 47.3861 38.6172 47.342 37.7309L47.3405 37.6998C47.2978 36.8415 47.252 35.9207 47.252 34.9943C47.252 33.7888 48.1923 32.8115 49.3522 32.8115Z" fill="white"/>
<path fill-rule="evenodd" clip-rule="evenodd" d="M57.751 31.9365C58.9591 31.9365 59.9385 32.9059 59.9385 34.1017V38.9588C59.9385 40.1546 58.9591 41.124 57.751 41.124C56.5429 41.124 55.5635 40.1546 55.5635 38.9588V34.1017C55.5635 32.9059 56.5429 31.9365 57.751 31.9365Z" fill="white"/>
<path fill-rule="evenodd" clip-rule="evenodd" d="M41.8257 44.4291C42.8652 43.8879 44.1514 44.2827 44.6985 45.3111C46.8117 49.283 51.1182 51.956 55.7345 53.1738C56.8695 53.4733 57.5443 54.6262 57.2416 55.749C56.939 56.8719 55.7735 57.5394 54.6385 57.24C49.3066 55.8334 43.7791 52.6184 40.9342 47.271C40.3871 46.2427 40.7862 44.9703 41.8257 44.4291Z" fill="white"/>
<circle cx="97.456" cy="76.7665" r="20.7333" fill="white" stroke="black"/>
<path fill-rule="evenodd" clip-rule="evenodd" d="M117.621 56.0708C118.803 56.959 119.04 58.6357 118.151 59.8159L99.2105 84.9558C98.6918 85.6442 97.8728 86.0409 97.0105 86.0214C96.1481 86.0019 95.3479 85.5687 94.861 84.8575L86.4902 72.6336C85.6554 71.4144 85.9681 69.7501 87.1886 68.9162C88.4092 68.0823 90.0755 68.3946 90.9103 69.6138L97.1748 78.762L113.872 56.5997C114.761 55.4195 116.44 55.1827 117.621 56.0708Z" fill="#45BE59"/>
</svg>
