<svg width="24" height="24" viewBox="0 0 24 24" fill="none" xmlns="http://www.w3.org/2000/svg">
<path fill-rule="evenodd" clip-rule="evenodd" d="M17.9562 15.1359C16.4234 14.8673 14.8947 13.7416 13.9736 12.0223C12.8847 9.98963 12.9628 7.72039 14.0142 6.27944C14.122 6.13175 14.24 5.99276 14.368 5.86362C14.6149 5.61455 14.5435 5.14979 14.1963 5.09307C13.9699 5.05608 13.7399 5.02981 13.5067 5.01481C13.354 5.00499 13.2 5 13.0447 5C9.15403 5 6 8.13401 6 12C6 15.866 9.15403 19 13.0447 19C15.2587 19 17.2342 17.9852 18.5256 16.3981C18.6724 16.2178 18.8103 16.0301 18.9387 15.8356C19.1217 15.5585 18.8679 15.2066 18.5345 15.1961C18.3425 15.19 18.1493 15.1697 17.9562 15.1359Z" stroke="#000" stroke-width="1.5"/>
</svg>
