<svg width="138" height="138" viewBox="0 0 138 138" fill="none" xmlns="http://www.w3.org/2000/svg">
<g filter="url(#filter0_d_53_7305)">
<path d="M129 66C129 99.1371 102.137 126 69 126C35.8629 126 9 99.1371 9 66C9 32.8629 35.8629 6 69 6C102.137 6 129 32.8629 129 66Z" fill="white"/>
</g>
<path d="M124 66C124 96.3757 99.3757 121 69 121C38.6243 121 14 96.3757 14 66C14 35.6243 38.6243 11 69 11C99.3757 11 124 35.6243 124 66Z" fill="#6BF65F"/>
<path fill-rule="evenodd" clip-rule="evenodd" d="M66.9527 32H46.1554C45.5173 32 45 32.5207 45 33.1629V56.809V99.8371C45 100.479 45.5173 101 46.1554 101H65.7973C66.4354 101 66.9527 100.479 66.9527 99.8371V82.7676C66.9527 82.0755 67.5496 81.5389 68.2361 81.5779C68.7036 81.6045 69.1746 81.618 69.6486 81.618H77.3514C90.9644 81.618 102 70.5106 102 56.809C102 43.1074 90.9644 32 77.3514 32H66.9527Z" fill="black"/>
<path fill-rule="evenodd" clip-rule="evenodd" d="M79.6816 55.123C80.5101 55.123 81.1816 55.7946 81.1816 56.623C81.1816 57.1767 81.2104 57.7392 81.242 58.3488L81.2427 58.3625C81.2733 58.9551 81.3063 59.5928 81.3063 60.2373C81.3063 61.0657 80.6347 61.7373 79.8063 61.7373C78.9778 61.7373 78.3063 61.0657 78.3063 60.2373C78.3063 59.6781 78.2774 59.1127 78.246 58.5036L78.2448 58.4822C78.2144 57.8924 78.1816 57.2597 78.1816 56.623C78.1816 55.7946 78.8532 55.123 79.6816 55.123Z" fill="white"/>
<path fill-rule="evenodd" clip-rule="evenodd" d="M85.6641 54.5C86.4925 54.5 87.1641 55.1716 87.1641 56V59.365C87.1641 60.1934 86.4925 60.865 85.6641 60.865C84.8356 60.865 84.1641 60.1934 84.1641 59.365V56C84.1641 55.1716 84.8356 54.5 85.6641 54.5Z" fill="white"/>
<path fill-rule="evenodd" clip-rule="evenodd" d="M74.3017 63.2813C75.0348 62.8955 75.9418 63.177 76.3277 63.9101C77.818 66.7416 80.8552 68.6472 84.1108 69.5154C84.9112 69.7288 85.3871 70.5508 85.1736 71.3512C84.9602 72.1517 84.1382 72.6275 83.3378 72.4141C79.5775 71.4113 75.6793 69.1194 73.6729 65.3073C73.2871 64.5742 73.5686 63.6672 74.3017 63.2813Z" fill="white"/>
<defs>
<filter id="filter0_d_53_7305" x="0" y="0" width="138" height="138" filterUnits="userSpaceOnUse" color-interpolation-filters="sRGB">
<feFlood flood-opacity="0" result="BackgroundImageFix"/>
<feColorMatrix in="SourceAlpha" type="matrix" values="0 0 0 0 0 0 0 0 0 0 0 0 0 0 0 0 0 0 127 0" result="hardAlpha"/>
<feOffset dy="3"/>
<feGaussianBlur stdDeviation="4.5"/>
<feComposite in2="hardAlpha" operator="out"/>
<feColorMatrix type="matrix" values="0 0 0 0 0 0 0 0 0 0 0 0 0 0 0 0 0 0 0.15 0"/>
<feBlend mode="normal" in2="BackgroundImageFix" result="effect1_dropShadow_53_7305"/>
<feBlend mode="normal" in="SourceGraphic" in2="effect1_dropShadow_53_7305" result="shape"/>
</filter>
</defs>
</svg>
